<?xml version="1.0" standalone="no"?><!DOCTYPE svg PUBLIC "-//W3C//DTD SVG 1.1//EN" "http://www.w3.org/Graphics/SVG/1.1/DTD/svg11.dtd"><svg t="1648267025401" class="icon" viewBox="0 0 1024 1024" version="1.1" xmlns="http://www.w3.org/2000/svg" p-id="11911" xmlns:xlink="http://www.w3.org/1999/xlink" width="200" height="200"><defs><style type="text/css">@font-face { font-family: feedback-iconfont; src: url("//at.alicdn.com/t/font_1031158_u69w8yhxdu.woff2?t=1630033759944") format("woff2"), url("//at.alicdn.com/t/font_1031158_u69w8yhxdu.woff?t=1630033759944") format("woff"), url("//at.alicdn.com/t/font_1031158_u69w8yhxdu.ttf?t=1630033759944") format("truetype"); }
</style></defs><path d="M572.330667 68.288l145.045333 145.024L874.666667 213.333333a85.333333 85.333333 0 0 1 85.333333 85.333334v576a85.333333 85.333333 0 0 1-85.333333 85.333333H149.333333a85.333333 85.333333 0 0 1-85.333333-85.333333V298.666667a85.333333 85.333333 0 0 1 85.333333-85.333334h157.290667L451.669333 68.266667a85.333333 85.333333 0 0 1 120.661334 0zM874.666667 277.333333H149.333333a21.333333 21.333333 0 0 0-21.184 18.837334L128 298.666667v576a21.333333 21.333333 0 0 0 18.837333 21.184L149.333333 896h725.333334a21.333333 21.333333 0 0 0 21.184-18.837333L896 874.666667V298.666667a21.333333 21.333333 0 0 0-18.837333-21.184L874.666667 277.333333zM460.8 682.666667c4.693333 0 8.533333 3.84 8.533333 8.533333v46.933333a8.533333 8.533333 0 0 1-8.533333 8.533334h-196.266667a8.533333 8.533333 0 0 1-8.533333-8.533334v-46.933333c0-4.693333 3.84-8.533333 8.533333-8.533333h196.266667z m298.666667-128c4.693333 0 8.533333 3.84 8.533333 8.533333v46.933333a8.533333 8.533333 0 0 1-8.533333 8.533334H264.533333a8.533333 8.533333 0 0 1-8.533333-8.533334v-46.933333c0-4.693333 3.84-8.533333 8.533333-8.533333h494.933334z m0-128c4.693333 0 8.533333 3.84 8.533333 8.533333v46.933333a8.533333 8.533333 0 0 1-8.533333 8.533334H264.533333a8.533333 8.533333 0 0 1-8.533333-8.533334v-46.933333c0-4.693333 3.84-8.533333 8.533333-8.533333h494.933334zM498.773333 111.893333l-1.856 1.642667L397.12 213.333333h229.76l-99.797333-99.776a21.333333 21.333333 0 0 0-28.309334-1.642666z" fill="#333333" p-id="11912"></path></svg>