<?xml version="1.0" standalone="no"?><!DOCTYPE svg PUBLIC "-//W3C//DTD SVG 1.1//EN" "http://www.w3.org/Graphics/SVG/1.1/DTD/svg11.dtd"><svg t="1653476211119" class="icon" viewBox="0 0 1024 1024" version="1.1" xmlns="http://www.w3.org/2000/svg" p-id="2251" xmlns:xlink="http://www.w3.org/1999/xlink" width="200" height="200"><defs><style type="text/css">@font-face { font-family: feedback-iconfont; src: url("//at.alicdn.com/t/font_1031158_u69w8yhxdu.woff2?t=1630033759944") format("woff2"), url("//at.alicdn.com/t/font_1031158_u69w8yhxdu.woff?t=1630033759944") format("woff"), url("//at.alicdn.com/t/font_1031158_u69w8yhxdu.ttf?t=1630033759944") format("truetype"); }
</style></defs><path d="M537.507394 508.345049c-47.172005 0-85.416888 38.243995-85.416888 85.417776 0 39.757307 27.291131 72.874336 64.070659 82.398256l0 131.139524 42.708444 0 0-131.144852c36.771535-9.529249 64.054673-42.641837 64.054673-82.392928C622.924282 546.589044 584.681175 508.345049 537.507394 508.345049zM537.507394 636.470381c-23.548703 0-42.708444-19.157965-42.708444-42.707556 0-23.550479 19.159742-42.709332 42.708444-42.709332s42.708444 19.159742 42.708444 42.709332C580.215838 617.312416 561.056985 636.470381 537.507394 636.470381z" p-id="2252" fill="#cdcdcd"></path><path d="M920.799028 338.597412 814.066106 338.597412 814.066106 192.521922c0-106.143228-43.373627-192.188887-149.519519-192.188887L429.887266 0.333035C323.745814 0.333035 260.790601 86.379582 260.790601 192.521922l0 146.074602-108.507334 0c-47.172005 0-85.416888 38.242219-85.416888 85.413336l0 514.237553c0 47.177333 38.243995 85.419552 85.416888 85.419552l768.514873 0c47.173781 0 85.416888-38.242219 85.416888-85.419552L1006.215028 424.009859C1006.215916 376.838742 967.972809 338.597412 920.799028 338.597412zM303.499046 192.521922c0-82.424011 43.965097-149.480442 126.387332-149.480442l234.660209 0c88.508344 0 106.811074 75.075921 106.811074 149.480442l0 146.068385L303.499046 338.590307 303.499046 192.521922zM963.507472 938.247412c0 23.550479-19.158853 42.711108-42.708444 42.711108L152.283267 980.958521c-23.548703 0-42.708444-19.16063-42.708444-42.711108L109.574823 424.009859c0-23.547814 19.159742-42.704892 42.708444-42.704892l768.514873 0c23.548703 0 42.708444 19.157077 42.708444 42.704892L963.506584 938.247412z" p-id="2253" fill="#cdcdcd"></path></svg>