<?xml version="1.0" encoding="UTF-8"?>
<svg width="90px" height="16px" viewBox="0 0 90 16" version="1.1" xmlns="http://www.w3.org/2000/svg" xmlns:xlink="http://www.w3.org/1999/xlink">
    <title>icon-tc</title>
    <g id="footer" stroke="none" stroke-width="1" fill="none" fill-rule="evenodd">
        <g id="画板" transform="translate(-250.000000, -714.000000)" fill="#0052D9" fill-rule="nonzero">
            <g id="bvXMLID_80_" transform="translate(250.000000, 714.000000)">
                <path d="M83.3,1.9 L82.7,4.9 L78.9,4.9 L80.4,6.9 L82.4,6.9 L80.8,15.7 L84.2,15.7 L85.7,7 L90,7 L83.3,1.9 Z M15.9,0 L0.4,0 L0,2.3 L6,2.3 L3.5,15.8 L6.9,15.8 L9.4,2.3 L15.5,2.3 L15.9,0 Z M18.5,4.7 C14.2,4.7 11.4,7.3 10.8,10.2 C10.2,13.5 12.4,15.9 16.7,15.9 C18.7,15.9 20.5,15.6 22,14.8 L22.5,12.3 C21,13.3 19.2,13.8 17.6,13.8 C15.4,13.8 13.7,12.9 14,11 L23,11 C23.1,10.8 23.2,10.4 23.3,9.9 C23.8,7.6 22.9,4.7 18.5,4.7 Z M20.2,9.2 L14.3,9.2 C14.7,8.1 15.8,6.6 17.9,6.6 C20.2,6.6 20.4,8.2 20.2,9.2 Z M33.6,4.7 C31.5,4.7 29.9,5.5 29.1,6.4 L29,6.4 L26,4.7 C25.9,5.6 25.7,6.9 25.5,8.2 L24.1,15.8 L27.5,15.8 L28.7,9.4 L29,8.5 C29.5,7.7 30.6,6.9 31.9,6.9 C33.8,6.9 34.3,8.1 34,9.6 L32.9,15.7 L36.3,15.7 L37.5,9.4 C38.1,5.9 35.9,4.7 33.6,4.7 Z M74.5,4.7 C72.4,4.7 70.8,5.5 70,6.4 L69.9,6.4 L66.9,4.7 C66.8,5.6 66.6,6.9 66.4,8.2 L65,15.8 L68.5,15.8 L69.7,9.4 L70,8.5 C70.5,7.7 71.6,6.9 72.9,6.9 C74.8,6.9 75.3,8.1 75,9.6 L73.9,15.7 L77.3,15.7 L78.5,9.4 C79.1,5.9 76.9,4.7 74.5,4.7 Z M59.4,4.7 C55.1,4.7 52.3,7.3 51.7,10.2 C51.1,13.5 53.3,15.9 57.6,15.9 C59.6,15.9 61.4,15.6 62.9,14.8 L63.4,12.3 C61.9,13.3 60.1,13.8 58.5,13.8 C56.3,13.8 54.6,12.9 54.9,11 L63.9,11 C64,10.8 64.1,10.4 64.2,9.9 C64.7,7.6 63.8,4.7 59.4,4.7 L59.4,4.7 Z M61.2,9.2 L55.3,9.2 C55.7,8.1 56.8,6.6 58.9,6.6 C61.2,6.6 61.4,8.2 61.2,9.2 Z M38.9,10.2 C38.3,13.5 40.8,16 45,16 C46.7,16 48.7,15.5 49.5,15.3 L50.1,12.4 C48.9,13.6 47.3,13.8 46.2,13.8 C43.9,13.8 42.1,12.5 42.5,10.3 C42.9,8.3 44.9,6.8 47.5,6.8 C48.6,6.8 50,7.1 50.9,8.3 L51.4,5.4 C50.7,5.1 49.5,4.8 47.7,4.8 C42.9,4.7 39.5,7 38.9,10.2 Z" id="bvXMLID_81_"></path>
            </g>
        </g>
    </g>
</svg>