<?xml version="1.0" standalone="no"?><!DOCTYPE svg PUBLIC "-//W3C//DTD SVG 1.1//EN" "http://www.w3.org/Graphics/SVG/1.1/DTD/svg11.dtd"><svg t="1652599958833" class="icon" viewBox="0 0 1024 1024" version="1.1" xmlns="http://www.w3.org/2000/svg" p-id="2343" xmlns:xlink="http://www.w3.org/1999/xlink" width="200" height="200"><defs><style type="text/css">@font-face { font-family: feedback-iconfont; src: url("//at.alicdn.com/t/font_1031158_u69w8yhxdu.woff2?t=1630033759944") format("woff2"), url("//at.alicdn.com/t/font_1031158_u69w8yhxdu.woff?t=1630033759944") format("woff"), url("//at.alicdn.com/t/font_1031158_u69w8yhxdu.ttf?t=1630033759944") format("truetype"); }
</style></defs><path d="M512 64.7C264.9 64.7 64.7 264.9 64.7 512S264.9 959.3 512 959.3 959.3 759.1 959.3 512 759.1 64.7 512 64.7z m262 319.5L473.2 685c-6 6-14.1 9.4-22.6 9.4S434 691 428 685L250 507c-12.5-12.5-12.5-32.8 0-45.3s32.8-12.5 45.3 0l155.4 155.4L728.8 339c12.5-12.5 32.8-12.5 45.3 0 12.4 12.5 12.4 32.7-0.1 45.2z" p-id="2344" fill="#0052D9"></path></svg>