<?xml version="1.0" encoding="utf-8"?><svg width="223" height="171" viewBox="0 0 223 171" xmlns="http://www.w3.org/2000/svg" xmlns:xlink="http://www.w3.org/1999/xlink"><svg width="6" height="10" viewBox="0 0 6 10" id="L2RhdGEvX19xY2kvcm9vdC13b3Jrc3BhY2VzL19fcWNpLXBpcGVsaW5lLTQ0Mjc1MC0xL2J1aWxkL01haW4vZGVsL2Fycm93X2U5OS5zdmc=" x="214" y="120" xmlns="http://www.w3.org/2000/svg"><path d="M5.834 4.877l-1.061 1.06L1.061 9.65 0 8.59l3.713-3.713L0 1.165 1.06.105l4.774 4.772z" fill="#0080FF" fill-rule="evenodd"/></svg><svg width="6" height="10" viewBox="0 0 6 10" id="L2RhdGEvX19xY2kvcm9vdC13b3Jrc3BhY2VzL19fcWNpLXBpcGVsaW5lLTQ0Mjc1MC0xL2J1aWxkL01haW4vZGVsL2J0bi1uZXh0LWhvdmVyX2Q3ZC5zdmc=" x="121" y="113" xmlns="http://www.w3.org/2000/svg"><path d="M3.6 5L0 1.25 1.2 0 6 5 4.8 6.25 1.2 10 0 8.75z" fill="#0052d9" fill-rule="evenodd"/></svg><svg width="6" height="8" viewBox="0 0 6 8" id="L2RhdGEvX19xY2kvcm9vdC13b3Jrc3BhY2VzL19fcWNpLXBpcGVsaW5lLTQ0Mjc1MC0xL2J1aWxkL01haW4vZGVsL2J0bi1uZXh0X2JlOS5zdmc=" x="26" y="161" xmlns="http://www.w3.org/2000/svg"><defs><filter x="-18.3%" y="-14.1%" width="136.6%" height="128.1%" filterUnits="objectBoundingBox" id="acb"><feGaussianBlur stdDeviation=".5" in="SourceAlpha" result="shadowBlurInner1"/><feOffset dy="1" in="shadowBlurInner1" result="shadowOffsetInner1"/><feComposite in="shadowOffsetInner1" in2="SourceAlpha" operator="arithmetic" k2="-1" k3="1" result="shadowInnerInner1"/><feColorMatrix values="0 0 0 0 0 0 0 0 0 0 0 0 0 0 0 0 0 0 0.252813593 0" in="shadowInnerInner1"/></filter><path id="aca" d="M21.468 16.667L16 20.434l5.468 3.346z"/></defs><g transform="matrix(-1 0 0 1 22 -16)" fill="none" fill-rule="evenodd"><use fill="#BAC1C9" xlink:href="#aca"/><use fill="#000" filter="url(#acb)" xlink:href="#aca"/></g></svg><svg width="6" height="10" viewBox="0 0 6 10" id="L2RhdGEvX19xY2kvcm9vdC13b3Jrc3BhY2VzL19fcWNpLXBpcGVsaW5lLTQ0Mjc1MC0xL2J1aWxkL01haW4vZGVsL2J0bi1uZXh0X2UyYy5zdmc=" x="127" y="113" xmlns="http://www.w3.org/2000/svg"><path d="M3.6 5L0 1.25 1.2 0 6 5 4.8 6.25 1.2 10 0 8.75z" fill="#BAC1C9" fill-rule="evenodd"/></svg><svg width="6" height="10" viewBox="0 0 6 10" id="L2RhdGEvX19xY2kvcm9vdC13b3Jrc3BhY2VzL19fcWNpLXBpcGVsaW5lLTQ0Mjc1MC0xL2J1aWxkL01haW4vZGVsL2J0bi1wcmV2LWhvdmVyXzA3Yi5zdmc=" x="133" y="113" xmlns="http://www.w3.org/2000/svg"><path d="M2.4 5L6 8.75 4.8 10 0 5l1.2-1.25L4.8 0 6 1.25z" fill="#0052d9" fill-rule="nonzero"/></svg><svg width="6" height="8" viewBox="0 0 6 8" id="L2RhdGEvX19xY2kvcm9vdC13b3Jrc3BhY2VzL19fcWNpLXBpcGVsaW5lLTQ0Mjc1MC0xL2J1aWxkL01haW4vZGVsL2J0bi1wcmV2XzFmNC5zdmc=" x="32" y="161" xmlns="http://www.w3.org/2000/svg"><defs><filter x="-18.3%" y="-14.1%" width="136.6%" height="128.1%" filterUnits="objectBoundingBox" id="afb"><feGaussianBlur stdDeviation=".5" in="SourceAlpha" result="shadowBlurInner1"/><feOffset dy="1" in="shadowBlurInner1" result="shadowOffsetInner1"/><feComposite in="shadowOffsetInner1" in2="SourceAlpha" operator="arithmetic" k2="-1" k3="1" result="shadowInnerInner1"/><feColorMatrix values="0 0 0 0 0 0 0 0 0 0 0 0 0 0 0 0 0 0 0.252813593 0" in="shadowInnerInner1"/></filter><path id="afa" d="M17.468 12.667L12 16.434l5.468 3.346z"/></defs><g transform="translate(-12 -12)" fill="none" fill-rule="evenodd"><use fill="#BAC1C9" xlink:href="#afa"/><use fill="#000" filter="url(#afb)" xlink:href="#afa"/></g></svg><svg width="6" height="10" viewBox="0 0 6 10" id="L2RhdGEvX19xY2kvcm9vdC13b3Jrc3BhY2VzL19fcWNpLXBpcGVsaW5lLTQ0Mjc1MC0xL2J1aWxkL01haW4vZGVsL2J0bi1wcmV2Xzk4Ni5zdmc=" x="139" y="113" xmlns="http://www.w3.org/2000/svg"><path d="M2.4 5L6 8.75 4.8 10 0 5l1.2-1.25L4.8 0 6 1.25z" fill="#BAC1C9" fill-rule="nonzero"/></svg><svg width="12" height="8" viewBox="0 0 12 8" id="L2RhdGEvX19xY2kvcm9vdC13b3Jrc3BhY2VzL19fcWNpLXBpcGVsaW5lLTQ0Mjc1MC0xL2J1aWxkL01haW4vZGVsL2NhcmV0LW9wZW5fNWYyLnN2Zw==" x="166" y="136" xmlns="http://www.w3.org/2000/svg"><path d="M6 5.196L10.725 0 12 1.402 6 8 0 1.402 1.275 0z" fill="#0052D9" fill-rule="evenodd"/></svg><svg width="12" height="8" viewBox="0 0 12 8" id="L2RhdGEvX19xY2kvcm9vdC13b3Jrc3BhY2VzL19fcWNpLXBpcGVsaW5lLTQ0Mjc1MC0xL2J1aWxkL01haW4vZGVsL2NhcmV0LW9wZW5fNmVlLnN2Zw==" x="178" y="136" xmlns="http://www.w3.org/2000/svg"><path d="M6 5.196L10.725 0 12 1.402 6 8 0 1.402 1.275 0z" fill="#fff" fill-rule="evenodd"/></svg><svg width="12" height="8" viewBox="0 0 12 8" id="L2RhdGEvX19xY2kvcm9vdC13b3Jrc3BhY2VzL19fcWNpLXBpcGVsaW5lLTQ0Mjc1MC0xL2J1aWxkL01haW4vZGVsL2NhcmV0XzVhOC5zdmc=" x="190" y="136" xmlns="http://www.w3.org/2000/svg"><path d="M6 5.196L10.725 0 12 1.402 6 8 0 1.402 1.275 0z" fill="#999" fill-rule="evenodd"/></svg><svg width="12" height="12" viewBox="0 0 12 12" id="L2RhdGEvX19xY2kvcm9vdC13b3Jrc3BhY2VzL19fcWNpLXBpcGVsaW5lLTQ0Mjc1MC0xL2J1aWxkL01haW4vZGVsL2Nsb3NlLWFjdGl2ZV85NzAuc3Zn" x="153" y="81" xmlns="http://www.w3.org/2000/svg"><path d="M10.91 0L12 1.09 7.09 6 12 10.91 10.91 12 6 7.09 1.09 12 0 10.91 4.91 6 0 1.09 1.09 0 6 4.909 10.91 0z" fill="#0052D9" fill-rule="evenodd"/></svg><svg width="12" height="12" viewBox="0 0 12 12" id="L2RhdGEvX19xY2kvcm9vdC13b3Jrc3BhY2VzL19fcWNpLXBpcGVsaW5lLTQ0Mjc1MC0xL2J1aWxkL01haW4vZGVsL2Nsb3NlXzM2OS5zdmc=" x="153" y="97" xmlns="http://www.w3.org/2000/svg"><path d="M10.91 0L12 1.09 7.09 6 12 10.91 10.91 12 6 7.09 1.09 12 0 10.91 4.91 6 0 1.09 1.09 0 6 4.909 10.91 0z" fill="#495770" fill-rule="evenodd" opacity=".3"/></svg><svg width="57" height="46" viewBox="0 0 57 46" id="L2RhdGEvX19xY2kvcm9vdC13b3Jrc3BhY2VzL19fcWNpLXBpcGVsaW5lLTQ0Mjc1MC0xL2J1aWxkL01haW4vZGVsL2RvdF9jNzUuc3Zn" x="64" y="81" xmlns="http://www.w3.org/2000/svg"><path d="M17.56 46V33.02c.191-9.352 3.245-18.068 9.162-26.149L16.606 0c-4.9 4.072-8.892 9.29-11.977 15.651C1.543 22.014 0 28.44 0 34.93V46h17.56zm30.062 0V33.02c.191-9.352 3.245-18.068 9.162-26.149L46.668 0c-4.899 4.072-8.891 9.29-11.977 15.651-3.086 6.363-4.629 12.789-4.629 19.278V46h17.56z" fill="#E3E8ED" fill-rule="nonzero"/></svg><svg width="90" height="81" viewBox="0 0 90 81" id="L2RhdGEvX19xY2kvcm9vdC13b3Jrc3BhY2VzL19fcWNpLXBpcGVsaW5lLTQ0Mjc1MC0xL2J1aWxkL01haW4vZGVsL2VtcHR5XzI5Yi5zdmc=" xmlns="http://www.w3.org/2000/svg"><defs><linearGradient x1="-47.927%" y1="50%" x2="185.495%" y2="50%" id="ana"><stop stop-color="#FFF" offset="0%"/><stop stop-color="#E2E7EB" offset="100%"/></linearGradient><linearGradient x1="57.844%" y1="32.116%" x2="73.117%" y2="77.5%" id="and"><stop stop-color="#FBFEFE" stop-opacity=".5" offset="0%"/><stop stop-color="#A7B1B9" offset="100%"/></linearGradient><linearGradient x1="106.556%" y1="28.551%" x2="0%" y2="28.551%" id="ane"><stop stop-color="#F2F7FA" stop-opacity=".501" offset="0%"/><stop stop-color="#8D99A1" stop-opacity=".244" offset="100%"/></linearGradient><linearGradient x1="96.002%" y1="50.02%" x2="-.125%" y2="52.365%" id="anh"><stop stop-color="#FBFEFE" stop-opacity=".5" offset="0%"/><stop stop-color="#B9C1C7" offset="100%"/></linearGradient><linearGradient x1="22.132%" y1="6.673%" x2="85.239%" y2="92.307%" id="ani"><stop stop-color="#FFF" offset="0%"/><stop stop-color="#DADFE3" offset="100%"/></linearGradient><linearGradient x1="10.802%" y1="-39.98%" x2="80.247%" y2="123.629%" id="anj"><stop stop-color="#BBC2CA" stop-opacity=".658" offset="0%"/><stop stop-color="#E5E6EB" stop-opacity="0" offset="100%"/></linearGradient><radialGradient cx="35.61%" cy="29.795%" fx="35.61%" fy="29.795%" r="52.786%" gradientTransform="scale(.79245 1) rotate(69.879 .403 .365)" id="anb"><stop stop-color="#FFF" stop-opacity=".992" offset="0%"/><stop stop-color="#E2EBF1" offset="100%"/></radialGradient><radialGradient cx="35.61%" cy="29.795%" fx="35.61%" fy="29.795%" r="54.438%" gradientTransform="matrix(.26433 .91048 -.96443 .24954 .55 -.1)" id="anf"><stop stop-color="#FFF" stop-opacity=".992" offset="0%"/><stop stop-color="#E2EBF1" offset="100%"/></radialGradient><path d="M23.58 10.742h46.71a4 4 0 014 4v37.355a2 2 0 01-2 2H21.58a2 2 0 01-2-2V14.742a4 4 0 014-4z" id="anc"/><path d="M76.723 55.129l1.95 3.02c.98-.83 2.534-.704 3.56.323l6.727 6.727c1.076 1.075 1.164 2.73.197 3.697-.967.967-2.622.879-3.698-.197l-6.727-6.727c-.825-.824-1.069-1.99-.701-2.925l-1.834-2.84.526-1.078z" id="ang"/></defs><g fill="none" fill-rule="evenodd"><ellipse fill="#EFF3F8" fill-rule="nonzero" cx="49.774" cy="74.613" rx="28" ry="6"/><circle fill="url(#ana)" fill-rule="nonzero" cx="86" cy="4" r="4"/><g opacity=".696"><use fill="url(#anb)" xlink:href="#anc"/><use fill="url(#and)" xlink:href="#anc"/></g><path d="M23.58 10.742h46.71a4 4 0 014 4V19H19.58v-4.258a4 4 0 014-4z" fill="url(#ane)" fill-rule="nonzero"/><circle fill="#9CA7AE" fill-rule="nonzero" opacity=".3" cx="66.548" cy="45.323" r="14.968"/><use fill="url(#anf)" xlink:href="#ang"/><use fill="url(#anh)" xlink:href="#ang"/><circle fill="url(#ani)" fill-rule="nonzero" cx="66.032" cy="45.839" r="13.419"/><path d="M70.484 35.516a9.44 9.44 0 014.84 1.33 8.638 8.638 0 00-2.437-.35c-5.31 0-9.613 4.876-9.613 10.286 0 2.773 1.13 5.406 2.948 7.314-3.17-1.6-5.351-4.932-5.351-8.783 0-5.41 4.304-9.797 9.613-9.797z" fill="url(#anj)" transform="matrix(-1 0 0 1 136.194 0)"/><path fill="#F0F3F6" opacity=".696" d="M22.677 13.839H51.58v2.065H22.677z"/><rect fill="#E5E8EC" fill-rule="nonzero" opacity=".718" y="52" width="10" height="2" rx="1"/><path d="M6 49v8a1 1 0 01-2 0v-8a1 1 0 012 0z" fill="#E5E8EC" fill-rule="nonzero" opacity=".718"/></g></svg><svg width="16" height="16" viewBox="0 0 16 16" id="L2RhdGEvX19xY2kvcm9vdC13b3Jrc3BhY2VzL19fcWNpLXBpcGVsaW5lLTQ0Mjc1MC0xL2J1aWxkL01haW4vZGVsL2ljb24tY2FsY19kZmQuc3Zn" x="166" y="88" xmlns="http://www.w3.org/2000/svg"><g fill="none" fill-rule="evenodd"><path d="M0 0h16v16H0z"/><path d="M15 0v16H1V0h14zm-2 2H3v12h10V2z" fill="#0052D9" fill-rule="nonzero"/><path fill="#0052D9" fill-rule="nonzero" d="M5 4h6v2H5zm0 4h2v2H5zm4 0h2v2H9zm-4 3h2v2H5zm4 0h2v2H9z"/></g></svg><svg width="16" height="16" viewBox="0 0 16 16" id="L2RhdGEvX19xY2kvcm9vdC13b3Jrc3BhY2VzL19fcWNpLXBpcGVsaW5lLTQ0Mjc1MC0xL2J1aWxkL01haW4vZGVsL2ljb24tY2hlY2tfMjQ4LnN2Zw==" x="182" y="88" xmlns="http://www.w3.org/2000/svg"><g fill="#0052D9" fill-rule="nonzero"><path d="M11.96 4.154l1.273 1.273-6.082 6.081-1.272-1.272z"/><path d="M4.677 6.488l3.535 3.535-1.273 1.273-3.535-3.535z"/></g></svg><svg width="16" height="16" viewBox="0 0 16 16" id="L2RhdGEvX19xY2kvcm9vdC13b3Jrc3BhY2VzL19fcWNpLXBpcGVsaW5lLTQ0Mjc1MC0xL2J1aWxkL01haW4vZGVsL2ljb24tY2hlY2tfZmMyLnN2Zw==" x="198" y="88" xmlns="http://www.w3.org/2000/svg"><g fill="none" fill-rule="evenodd"><path d="M0 0h16v16H0z"/><path d="M11.071 5l1.414 1.414-4.95 4.95L4 7.828l1.414-1.414 2.121 2.121L11.071 5z" fill="#0ABF5B" fill-rule="nonzero"/></g></svg><svg width="24" height="24" viewBox="0 0 24 24" id="L2RhdGEvX19xY2kvcm9vdC13b3Jrc3BhY2VzL19fcWNpLXBpcGVsaW5lLTQ0Mjc1MC0xL2J1aWxkL01haW4vZGVsL2ljb24tY2xvdWRfYzZkLnN2Zw==" x="166" y="46" xmlns="http://www.w3.org/2000/svg"><g fill="none" fill-rule="evenodd"><path d="M22.516 22.603c-.66-1.374-1.925-2.694-2.475-3.244-.33-.33-.384-.77-.165-1.154.22-.385.66-.55 1.1-.44l.825.165c-.77-.44-1.54-.605-2.09-.77-.11-.055-.22-.055-.274-.055-.44-.11-.825-.44-1.045-.88-.275-.604-.55-.934-1.87-2.584-.88-1.1-2.913-1.76-3.628-1.924h-.11c-.11 0-.165-.055-.22-.11l-.055-.055c-.22-.22-.495-.33-.715-.495.055.11.165.22.33.385l.11.11c.44.495.605 1.155.715 1.76.055.164.055.33.11.44.055.164.22.494.55.934.22.33.274.66.22 1.045a6.591 6.591 0 00-.22 1.704c.22-.22.494-.33.824-.275.605.055.825.495 1.32 1.32.55.934 1.43 2.529 2.529 3.024l-.495.99c-1.374-.66-2.419-2.42-2.969-3.465a7.53 7.53 0 00-.44-.77c0 .056-.055.276-.055.88 0 .275 0 .495-.055.66a.597.597 0 01-.44.44c-.22.055-.44 0-.55-.165-.11-.165-.274-.385-.384-.66-.66-1.264-.22-3.299-.055-3.903v-.165c-.33-.495-.605-.935-.715-1.265-.055-.165-.055-.33-.11-.495-.11-.495-.275-1.044-.495-1.32l-.165-.11c-.44-.494-1.32-1.539-.55-2.198.715-.66 2.145.44 2.475.714.385.11 2.969.77 4.233 2.31 1.375 1.704 1.65 2.034 1.98 2.804.055.165.165.22.33.274.054 0 .164.055.274.055.77.22 2.09.55 3.3 1.485.274.22.494.44.604.605v.385a.496.496 0 01-.33.33c-.495.22-1.704.11-2.529-.056.66.66 1.76 1.925 2.364 3.244l-.99.495z" fill="#0052D9" fill-rule="nonzero"/><path d="M9 1.5c-4.95 0-9 1.65-9 3.75v13.5h1.5V14.1c1.575.975 4.35 1.65 7.5 1.65.6 0 1.2 0 1.8-.075.15-.525.3-1.05.525-1.5-.75.075-1.5.15-2.325.15-4.125 0-7.5-.975-7.5-2.25V7.35C3.075 8.325 5.85 9 9 9c3.15 0 5.925-.675 7.5-1.65v.9H18v-3c0-2.1-4.05-3.75-9-3.75zm0 6c-4.125 0-7.5-.975-7.5-2.25S4.875 3 9 3s7.5.975 7.5 2.25S13.125 7.5 9 7.5zm2.175 13.425C10.5 21 9.75 21 9 21c-4.125 0-7.5-.975-7.5-2.25H0c0 2.1 4.05 3.75 9 3.75 1.125 0 2.25-.075 3.3-.225a4.912 4.912 0 01-1.125-1.35z" fill="#0052D9" fill-rule="nonzero"/><path d="M23.44 22.204a18.553 18.553 0 00-2.308-3.273m.108-.003c1.786.273 2.678-.004 2.678-.832 0-.827-1.435-1.533-4.306-2.117-1.196-1.73-2.104-2.85-2.725-3.365C14.94 11.005 13.23 10.7 13.23 10.7s-1.939-.94-2.332-.571c-.444.416.65 2.146.65 2.146s.322.575.537 1.063c.082.188.248.813.405 1.198.089.22.234.51.435.87-.09 1.274-.09 2.24 0 2.898.09.657.318 1.34.682 2.045.257.229.431.229.523 0 .092-.228.193-.91.302-2.045"/></g></svg><svg width="16" height="16" viewBox="0 0 16 16" id="L2RhdGEvX19xY2kvcm9vdC13b3Jrc3BhY2VzL19fcWNpLXBpcGVsaW5lLTQ0Mjc1MC0xL2J1aWxkL01haW4vZGVsL2ljb24tYWN0aXZlXzg4NC5zdmc=" x="166" y="104" xmlns="http://www.w3.org/2000/svg"><path d="M16 0v16H0L16 0z" fill="#00A4FF"/><path d="M7.883 10.462l2.828 2.828-.707.707-2.828-2.828.707-.707z" fill="#FFF"/><path d="M9.297 13.293l4.95-4.95.707.707-4.95 4.95-.707-.707z" fill="#FFF"/></svg><svg width="16" height="16" viewBox="0 0 16 16" id="L2RhdGEvX19xY2kvcm9vdC13b3Jrc3BhY2VzL19fcWNpLXBpcGVsaW5lLTQ0Mjc1MC0xL2J1aWxkL01haW4vZGVsL2ljb24tYXJyb3ctYm90dG9tXzA4Mi5zdmc=" x="182" y="104" xmlns="http://www.w3.org/2000/svg"><path d="M0 0h16v16H0V0z" fill="none"/><path d="M13.299 5L8 10.3 2.7 5l-.7.599L8 11.6l5.999-6.001-.7-.599z" fill="#7C848E"/></svg><svg width="7" height="12" viewBox="0 0 7 12" id="L2RhdGEvX19xY2kvcm9vdC13b3Jrc3BhY2VzL19fcWNpLXBpcGVsaW5lLTQ0Mjc1MC0xL2J1aWxkL01haW4vZGVsL2ljb24tYXJyb3ctbGVmdC1ob3Zlcl8zYTIuc3Zn" x="214" y="46" xmlns="http://www.w3.org/2000/svg"><defs><filter x="-25%" y="-24.9%" width="150%" height="149.9%" filterUnits="objectBoundingBox" id="aub"><feGaussianBlur stdDeviation="1.5" in="SourceAlpha" result="shadowBlurInner1"/><feOffset dy="1" in="shadowBlurInner1" result="shadowOffsetInner1"/><feComposite in="shadowOffsetInner1" in2="SourceAlpha" operator="arithmetic" k2="-1" k3="1" result="shadowInnerInner1"/><feColorMatrix values="0 0 0 0 0 0 0 0 0 0 0 0 0 0 0 0 0 0 0.5 0" in="shadowInnerInner1"/></filter><path d="M16.75 14a.75.75 0 01.75.75v5.769h5.754a.75.75 0 110 1.5h-7.25v-.02H16v-7.25a.75.75 0 01.75-.75z" id="aua"/></defs><g transform="rotate(45 27.487 -4.89)" fill="none" fill-rule="evenodd"><use fill="#333" xlink:href="#aua"/><use fill="#000" filter="url(#aub)" xlink:href="#aua"/></g></svg><svg width="16" height="16" viewBox="0 0 16 16" id="L2RhdGEvX19xY2kvcm9vdC13b3Jrc3BhY2VzL19fcWNpLXBpcGVsaW5lLTQ0Mjc1MC0xL2J1aWxkL01haW4vZGVsL2ljb24tYXJyb3ctbGVmdC1tb2JpbGUtZGlzYWJsZWRfMGU1LnN2Zw==" x="198" y="104" xmlns="http://www.w3.org/2000/svg"><g fill="none" fill-rule="evenodd"><path d="M0 0h16v16H0z"/><g fill="#999"><path d="M10.121 15.536l-7.07-7.072L4.464 7.05l7.07 7.071z"/><path d="M3.05 8.465l7.071-7.072 1.415 1.415-7.071 7.07z"/></g></g></svg><svg width="16" height="16" viewBox="0 0 16 16" id="L2RhdGEvX19xY2kvcm9vdC13b3Jrc3BhY2VzL19fcWNpLXBpcGVsaW5lLTQ0Mjc1MC0xL2J1aWxkL01haW4vZGVsL2ljb24tYXJyb3ctbGVmdC1tb2JpbGVfNzY2LnN2Zw==" x="166" y="120" xmlns="http://www.w3.org/2000/svg"><g fill="none" fill-rule="evenodd"><path d="M0 0h16v16H0z"/><g fill="#00a4ff"><path d="M10.121 15.536l-7.07-7.072L4.464 7.05l7.07 7.071z"/><path d="M3.05 8.465l7.071-7.072 1.415 1.415-7.071 7.07z"/></g></g></svg><svg width="7" height="12" viewBox="0 0 7 12" id="L2RhdGEvX19xY2kvcm9vdC13b3Jrc3BhY2VzL19fcWNpLXBpcGVsaW5lLTQ0Mjc1MC0xL2J1aWxkL01haW4vZGVsL2ljb24tYXJyb3ctbGVmdF9jMDQuc3Zn" x="214" y="58" xmlns="http://www.w3.org/2000/svg"><defs><filter x="-25%" y="-24.9%" width="150%" height="149.9%" filterUnits="objectBoundingBox" id="axb"><feGaussianBlur stdDeviation="1.5" in="SourceAlpha" result="shadowBlurInner1"/><feOffset dy="1" in="shadowBlurInner1" result="shadowOffsetInner1"/><feComposite in="shadowOffsetInner1" in2="SourceAlpha" operator="arithmetic" k2="-1" k3="1" result="shadowInnerInner1"/><feColorMatrix values="0 0 0 0 0 0 0 0 0 0 0 0 0 0 0 0 0 0 0.5 0" in="shadowInnerInner1"/></filter><path d="M16.75 14a.75.75 0 01.75.75v5.769h5.754a.75.75 0 110 1.5h-7.25v-.02H16v-7.25a.75.75 0 01.75-.75z" id="axa"/></defs><g transform="rotate(45 27.487 -4.89)" fill="none" fill-rule="evenodd"><use fill="#666" xlink:href="#axa"/><use fill="#000" filter="url(#axb)" xlink:href="#axa"/></g></svg><svg width="7" height="12" viewBox="0 0 7 12" id="L2RhdGEvX19xY2kvcm9vdC13b3Jrc3BhY2VzL19fcWNpLXBpcGVsaW5lLTQ0Mjc1MC0xL2J1aWxkL01haW4vZGVsL2ljb24tYXJyb3ctcmlnaHQtaG92ZXJfZGI5LnN2Zw==" x="214" y="88" xmlns="http://www.w3.org/2000/svg"><path d="M.469.872a.75.75 0 000 1.06L4.537 6l-4.07 4.071a.748.748 0 001.058 1.058l5.128-5.128-.013-.013.003-.003L1.529.872a.75.75 0 00-1.06 0z" fill="#333" fill-rule="evenodd"/></svg><svg width="16" height="16" viewBox="0 0 16 16" id="L2RhdGEvX19xY2kvcm9vdC13b3Jrc3BhY2VzL19fcWNpLXBpcGVsaW5lLTQ0Mjc1MC0xL2J1aWxkL01haW4vZGVsL2ljb24tYXJyb3ctcmlnaHQtbW9iaWxlLWRpc2FibGVkXzY2Ny5zdmc=" x="182" y="120" xmlns="http://www.w3.org/2000/svg"><g fill="none" fill-rule="evenodd"><path d="M0 0h16v16H0z"/><g fill="#999"><path d="M5.879 15.536l7.07-7.072-1.414-1.414-7.07 7.071z"/><path d="M12.95 8.465L5.879 1.393 4.464 2.808l7.071 7.07z"/></g></g></svg><svg width="16" height="16" viewBox="0 0 16 16" id="L2RhdGEvX19xY2kvcm9vdC13b3Jrc3BhY2VzL19fcWNpLXBpcGVsaW5lLTQ0Mjc1MC0xL2J1aWxkL01haW4vZGVsL2ljb24tYXJyb3ctcmlnaHQtbW9iaWxlXzA4Yi5zdmc=" x="198" y="120" xmlns="http://www.w3.org/2000/svg"><g fill="none" fill-rule="evenodd"><path d="M0 0h16v16H0z"/><g fill="#00a4ff"><path d="M5.879 15.536l7.07-7.072-1.414-1.414-7.07 7.071z"/><path d="M12.95 8.465L5.879 1.393 4.464 2.808l7.071 7.07z"/></g></g></svg><svg width="7" height="12" viewBox="0 0 7 12" id="L2RhdGEvX19xY2kvcm9vdC13b3Jrc3BhY2VzL19fcWNpLXBpcGVsaW5lLTQ0Mjc1MC0xL2J1aWxkL01haW4vZGVsL2ljb24tYXJyb3ctcmlnaHRfNDI2LnN2Zw==" x="214" y="104" xmlns="http://www.w3.org/2000/svg"><path d="M.469.872a.75.75 0 000 1.06L4.537 6l-4.07 4.071a.748.748 0 001.058 1.058l5.128-5.128-.013-.013.003-.003L1.529.872a.75.75 0 00-1.06 0z" fill="#666" fill-rule="evenodd"/></svg><svg width="16" height="16" viewBox="0 0 16 16" id="L2RhdGEvX19xY2kvcm9vdC13b3Jrc3BhY2VzL19fcWNpLXBpcGVsaW5lLTQ0Mjc1MC0xL2J1aWxkL01haW4vZGVsL2ljb24tYXJyb3dfMDgyLnN2Zw==" x="121" y="81" xmlns="http://www.w3.org/2000/svg"><path d="M0 0h16v16H0V0z" fill="none"/><path d="M13.299 5L8 10.3 2.7 5l-.7.599L8 11.6l5.999-6.001-.7-.599z" fill="#7C848E"/></svg><svg width="16" height="16" viewBox="0 0 16 16" id="L2RhdGEvX19xY2kvcm9vdC13b3Jrc3BhY2VzL19fcWNpLXBpcGVsaW5lLTQ0Mjc1MC0xL2J1aWxkL01haW4vZGVsL2ljb24tZG9jXzZjYi5zdmc=" x="137" y="81" xmlns="http://www.w3.org/2000/svg"><path d="M16 0v16H0V0h16zm-2 2H2v12h12V2zm-6 8v2H4v-2h4zm4-3v2H4V7h8zm0-3v2H4V4h8z" fill="#0052D9" fill-rule="nonzero"/></svg><svg width="16" height="16" viewBox="0 0 16 16" id="L2RhdGEvX19xY2kvcm9vdC13b3Jrc3BhY2VzL19fcWNpLXBpcGVsaW5lLTQ0Mjc1MC0xL2J1aWxkL01haW4vZGVsL2ljb24tZHJvcGRvd25fZDVkLnN2Zw==" x="121" y="97" xmlns="http://www.w3.org/2000/svg"><g fill="none" fill-rule="evenodd"><path d="M0 0h16v16H0z"/><path d="M4 6.414L5.414 5l2.828 2.828L11.072 5l1.413 1.414-2.828 2.829-1.414 1.414L4 6.414z" fill="#9B9B9B"/></g></svg><svg width="18" height="18" viewBox="0 0 18 18" id="L2RhdGEvX19xY2kvcm9vdC13b3Jrc3BhY2VzL19fcWNpLXBpcGVsaW5lLTQ0Mjc1MC0xL2J1aWxkL01haW4vZGVsL2ljb24tZmVhdHVyZV8xOGYuc3Zn" x="166" y="70" xmlns="http://www.w3.org/2000/svg"><g fill="none" fill-rule="evenodd"><circle fill="#0052D9" cx="9" cy="9" r="9"/><path d="M5.23 8.407a.78.78 0 00-.15.92l1.555 3.009a1 1 0 001.718.1l4.585-6.807a.4.4 0 00-.091-.543.418.418 0 00-.56.052l-4.57 5.006-1.665-1.723a.581.581 0 00-.821-.014z" fill="#FFF"/></g></svg><svg width="16" height="16" viewBox="0 0 16 16" id="L2RhdGEvX19xY2kvcm9vdC13b3Jrc3BhY2VzL19fcWNpLXBpcGVsaW5lLTQ0Mjc1MC0xL2J1aWxkL01haW4vZGVsL2ljb24taGFuZHBpY2tfYWM0LnN2Zw==" x="137" y="97" xmlns="http://www.w3.org/2000/svg"><g fill="#0055DC" fill-rule="nonzero"><path d="M2 8a6 6 0 1012 0A6 6 0 002 8zM0 8a8 8 0 1116 0A8 8 0 010 8z"/><path d="M9.711 7H6.353l-.07.128 1.683 2.04L9.71 7zm-1.727 5.2a.233.233 0 01-.181-.087L4.13 7.66a.584.584 0 01-.06-.645l.944-1.743A.507.507 0 015.46 5h5.38c.206 0 .392.13.473.333l.645 1.587a.585.585 0 01-.083.584l-3.71 4.607a.234.234 0 01-.18.089z"/></g></svg><svg width="18" height="16" viewBox="0 0 18 16" id="L2RhdGEvX19xY2kvcm9vdC13b3Jrc3BhY2VzL19fcWNpLXBpcGVsaW5lLTQ0Mjc1MC0xL2J1aWxkL01haW4vZGVsL2ljb24tbW9yZWxpbmtfNTU4LnN2Zw==" x="184" y="70" xmlns="http://www.w3.org/2000/svg"><g fill="none" fill-rule="evenodd"><path d="M.5.5h17v15H.5z"/><path d="M11.787 5.161L13.415 4l4.526 6.348H0v-2h14.058z" fill="#0052D9" fill-rule="nonzero"/></g></svg><svg width="18" height="16" viewBox="0 0 18 16" id="L2RhdGEvX19xY2kvcm9vdC13b3Jrc3BhY2VzL19fcWNpLXBpcGVsaW5lLTQ0Mjc1MC0xL2J1aWxkL01haW4vZGVsL2ljb24tbW9yZWxpbmtfY2Q5LnN2Zw==" x="202" y="70" xmlns="http://www.w3.org/2000/svg"><g fill="none" fill-rule="evenodd"><path d="M.5.5h17v15H.5z"/><path d="M11.787 5.161L13.415 4l4.526 6.348H0v-2h14.058z" fill="#fff" fill-rule="nonzero"/></g></svg><svg width="16" height="16" viewBox="0 0 16 16" id="L2RhdGEvX19xY2kvcm9vdC13b3Jrc3BhY2VzL19fcWNpLXBpcGVsaW5lLTQ0Mjc1MC0xL2J1aWxkL01haW4vZGVsL2ljb24tc2FsZV8xODguc3Zn" x="64" y="127" xmlns="http://www.w3.org/2000/svg"><defs><path id="bja" d="M0 0h16v16H0z"/></defs><g fill="none" fill-rule="evenodd"><mask id="bjb" fill="#fff"><use xlink:href="#bja"/></mask><path d="M3.732 12.667h5v-7.5a2.5 2.5 0 10-5 0v7.5zm2.5-12a4.5 4.5 0 014.5 4.5v9.5h-9v-9.5a4.5 4.5 0 014.5-4.5z" fill="#0052D9" fill-rule="nonzero" mask="url(#bjb)" transform="rotate(-45 6.232 7.667)"/><rect fill="#0052D9" mask="url(#bjb)" transform="rotate(-45 8.707 11.556)" x="8.207" y="9.056" width="1" height="5" rx=".5"/><rect fill="#0052D9" mask="url(#bjb)" transform="rotate(-45 10.12 10.142)" x="9.621" y="7.642" width="1" height="5" rx=".5"/><path d="M14.989 7.853V6.294a2.5 2.5 0 10-5 0v1.493l5 .066zm-2.5-6.059a4.5 4.5 0 014.5 4.5v1.512l-9 .291V6.294a4.5 4.5 0 014.5-4.5z" fill="#0052D9" fill-rule="nonzero" mask="url(#bjb)" transform="rotate(45 12.489 4.946)"/></g></svg><svg width="16" height="16" viewBox="0 0 16 16" id="L2RhdGEvX19xY2kvcm9vdC13b3Jrc3BhY2VzL19fcWNpLXBpcGVsaW5lLTQ0Mjc1MC0xL2J1aWxkL01haW4vZGVsL2ljb24tc2VydmljZV8wMTIuc3Zn" x="80" y="127" xmlns="http://www.w3.org/2000/svg"><path d="M3 15H1a5 5 0 015-5v2c-1.654 0-3 1.346-3 3zm7-3H6v-2h4v2zM4 5a4 4 0 118 0 4 4 0 01-8 0zm4 2a2 2 0 10.001-3.999A2 2 0 008 7zm3 3h4v5l-2.051-2L11 15z" fill="#0052D9" fill-rule="evenodd"/></svg><svg width="16" height="16" viewBox="0 0 16 16" id="L2RhdGEvX19xY2kvcm9vdC13b3Jrc3BhY2VzL19fcWNpLXBpcGVsaW5lLTQ0Mjc1MC0xL2J1aWxkL01haW4vZGVsL2ljb24tdGVzdF84MjQuc3Zn" x="96" y="127" xmlns="http://www.w3.org/2000/svg"><g fill="none" fill-rule="evenodd"><path d="M0 0h16v16H0z"/><path d="M14 0l.001 6.536A3.982 3.982 0 0012 6V2H2v10l6.536.001a4 4 0 00.464.645V14H0V0h14z" fill="#0052D9" fill-rule="nonzero"/><path fill="#0052D9" d="M3 3h8v2H3zm0 3h4v2H3zm9 1a3 3 0 012 5.235V15l-2.051-2L10 15v-2.764A3 3 0 0112 7zm0 2a1 1 0 100 2 1 1 0 000-2z"/></g></svg><svg width="64" height="64" viewBox="0 0 64 64" id="L2RhdGEvX19xY2kvcm9vdC13b3Jrc3BhY2VzL19fcWNpLXBpcGVsaW5lLTQ0Mjc1MC0xL2J1aWxkL01haW4vZGVsL2ljb24tdmlkZW8tbV81ZTYuc3Zn" y="81" xmlns="http://www.w3.org/2000/svg"><defs><filter x="-32.6%" y="-23.9%" width="165.2%" height="165.2%" filterUnits="objectBoundingBox" id="bma"><feMorphology radius="1" operator="dilate" in="SourceAlpha" result="shadowSpreadOuter1"/><feOffset dy="4" in="shadowSpreadOuter1" result="shadowOffsetOuter1"/><feGaussianBlur stdDeviation="4" in="shadowOffsetOuter1" result="shadowBlurOuter1"/><feComposite in="shadowBlurOuter1" in2="SourceAlpha" operator="out" result="shadowBlurOuter1"/><feColorMatrix values="0 0 0 0 0.0196078431 0 0 0 0 0.160784314 0 0 0 0 0.423529412 0 0 0 0.40282008 0" in="shadowBlurOuter1"/></filter><circle id="bmb" cx="23" cy="23" r="23"/></defs><g fill="none" fill-rule="evenodd"><g transform="translate(9 5)"><use fill="#000" filter="url(#bma)" xlink:href="#bmb"/><use stroke="#FFF" stroke-width="2" fill-opacity=".423" fill="#05296C" xlink:href="#bmb"/></g><path fill="#FFF" d="M41 28l-14 8V20z"/></g></svg><svg width="76" height="76" viewBox="0 0 76 76" id="L2RhdGEvX19xY2kvcm9vdC13b3Jrc3BhY2VzL19fcWNpLXBpcGVsaW5lLTQ0Mjc1MC0xL2J1aWxkL01haW4vZGVsL2ljb24tdmlkZW9fMWU1LnN2Zw==" x="90" xmlns="http://www.w3.org/2000/svg"><defs><filter x="-25.9%" y="-19%" width="151.7%" height="151.7%" filterUnits="objectBoundingBox" id="bna"><feMorphology radius="1" operator="dilate" in="SourceAlpha" result="shadowSpreadOuter1"/><feOffset dy="4" in="shadowSpreadOuter1" result="shadowOffsetOuter1"/><feGaussianBlur stdDeviation="4" in="shadowOffsetOuter1" result="shadowBlurOuter1"/><feComposite in="shadowBlurOuter1" in2="SourceAlpha" operator="out" result="shadowBlurOuter1"/><feColorMatrix values="0 0 0 0 0.0196078431 0 0 0 0 0.160784314 0 0 0 0 0.423529412 0 0 0 0.40282008 0" in="shadowBlurOuter1"/></filter><circle id="bnb" cx="29" cy="29" r="29"/></defs><g fill="none" fill-rule="evenodd"><g transform="translate(9 5)"><use fill="#000" filter="url(#bna)" xlink:href="#bnb"/><use stroke="#FFF" stroke-width="2" fill-opacity=".423" fill="#05296C" xlink:href="#bnb"/></g><path fill="#FFF" d="M48.75 33.75l-17.5 10v-20z"/></g></svg><svg width="16" height="16" viewBox="0 0 16 16" id="L2RhdGEvX19xY2kvcm9vdC13b3Jrc3BhY2VzL19fcWNpLXBpcGVsaW5lLTQ0Mjc1MC0xL2J1aWxkL01haW4vZGVsL2ljb25fYzQyLnN2Zw==" x="112" y="127" xmlns="http://www.w3.org/2000/svg"><g fill="none" fill-rule="evenodd"><path d="M0 0h16v16H0z"/><path d="M0 0h16v16H0V0zm2 2v12h12V2H2z" fill="#FFF" fill-rule="nonzero"/><path fill="#FFF" d="M5.5 4l6 4-6 4z"/></g></svg><svg width="10" height="6" viewBox="0 0 10 6" id="L2RhdGEvX19xY2kvcm9vdC13b3Jrc3BhY2VzL19fcWNpLXBpcGVsaW5lLTQ0Mjc1MC0xL2J1aWxkL01haW4vZGVsL2xpbmstYXJyb3ctYm90dG9tLWRpc2FibGVkX2QxYi5zdmc=" x="202" y="136" xmlns="http://www.w3.org/2000/svg"><path d="M5 3.6L8.75 0 10 1.2 5 6 3.75 4.8 0 1.2 1.25 0z" fill="#999" fill-rule="evenodd"/></svg><svg width="10" height="6" viewBox="0 0 10 6" id="L2RhdGEvX19xY2kvcm9vdC13b3Jrc3BhY2VzL19fcWNpLXBpcGVsaW5lLTQ0Mjc1MC0xL2J1aWxkL01haW4vZGVsL2xpbmstYXJyb3ctYm90dG9tLWdyYXlfZjhhLnN2Zw==" x="212" y="136" xmlns="http://www.w3.org/2000/svg"><path d="M5 3.6L8.75 0 10 1.2 5 6 3.75 4.8 0 1.2 1.25 0z" fill="#666" fill-rule="evenodd"/></svg><svg width="8" height="5" viewBox="0 0 8 5" id="L2RhdGEvX19xY2kvcm9vdC13b3Jrc3BhY2VzL19fcWNpLXBpcGVsaW5lLTQ0Mjc1MC0xL2J1aWxkL01haW4vZGVsL2xpbmstYXJyb3ctYm90dG9tLXMtZ3JheV8zN2Yuc3Zn" x="214" y="130" xmlns="http://www.w3.org/2000/svg"><path d="M4 2.956L6.969 0 8 1.022 4 5 0 1.023 1.031 0z" fill="#666" fill-rule="evenodd"/></svg><svg width="8" height="5" viewBox="0 0 8 5" id="L2RhdGEvX19xY2kvcm9vdC13b3Jrc3BhY2VzL19fcWNpLXBpcGVsaW5lLTQ0Mjc1MC0xL2J1aWxkL01haW4vZGVsL2xpbmstYXJyb3ctYm90dG9tLXMtZGlzYWJsZWRfMWZjLnN2Zw==" x="90" y="76" xmlns="http://www.w3.org/2000/svg"><path d="M4 2.956L6.969 0 8 1.022 4 5 0 1.023 1.031 0z" fill="#999" fill-rule="evenodd"/></svg><svg width="8" height="5" viewBox="0 0 8 5" id="L2RhdGEvX19xY2kvcm9vdC13b3Jrc3BhY2VzL19fcWNpLXBpcGVsaW5lLTQ0Mjc1MC0xL2J1aWxkL01haW4vZGVsL2xpbmstYXJyb3ctYm90dG9tLXMtd2hpdGVfYmM5LnN2Zw==" x="98" y="76" xmlns="http://www.w3.org/2000/svg"><path d="M4 2.956L6.969 0 8 1.022 4 5 0 1.023 1.031 0z" fill="#fff" fill-rule="evenodd"/></svg><svg width="8" height="5" viewBox="0 0 8 5" id="L2RhdGEvX19xY2kvcm9vdC13b3Jrc3BhY2VzL19fcWNpLXBpcGVsaW5lLTQ0Mjc1MC0xL2J1aWxkL01haW4vZGVsL2xpbmstYXJyb3ctYm90dG9tLXNfN2NlLnN2Zw==" x="106" y="76" xmlns="http://www.w3.org/2000/svg"><path d="M4 2.956L6.969 0 8 1.022 4 5 0 1.023 1.031 0z" fill="#00A4FF" fill-rule="evenodd"/></svg><svg width="10" height="6" viewBox="0 0 10 6" id="L2RhdGEvX19xY2kvcm9vdC13b3Jrc3BhY2VzL19fcWNpLXBpcGVsaW5lLTQ0Mjc1MC0xL2J1aWxkL01haW4vZGVsL2xpbmstYXJyb3ctYm90dG9tLXdoaXRlX2ZkMi5zdmc=" x="145" y="113" xmlns="http://www.w3.org/2000/svg"><path d="M5 3.6L8.75 0 10 1.2 5 6 3.75 4.8 0 1.2 1.25 0z" fill="#fff" fill-rule="evenodd"/></svg><svg width="10" height="6" viewBox="0 0 10 6" id="L2RhdGEvX19xY2kvcm9vdC13b3Jrc3BhY2VzL19fcWNpLXBpcGVsaW5lLTQ0Mjc1MC0xL2J1aWxkL01haW4vZGVsL2xpbmstYXJyb3ctYm90dG9tXzk1My5zdmc=" x="155" y="113" xmlns="http://www.w3.org/2000/svg"><path d="M5 3.6L8.75 0 10 1.2 5 6 3.75 4.8 0 1.2 1.25 0z" fill="#00A4FF" fill-rule="evenodd"/></svg><svg width="6" height="10" viewBox="0 0 6 10" id="L2RhdGEvX19xY2kvcm9vdC13b3Jrc3BhY2VzL19fcWNpLXBpcGVsaW5lLTQ0Mjc1MC0xL2J1aWxkL01haW4vZGVsL2xpbmstYXJyb3ctZ3JheV9jZWQuc3Zn" x="160" y="127" xmlns="http://www.w3.org/2000/svg"><path d="M3.6 5L0 1.25 1.2 0 6 5 4.8 6.25 1.2 10 0 8.75z" fill="#666" fill-rule="evenodd"/></svg><svg width="6" height="4" viewBox="0 0 6 4" id="L2RhdGEvX19xY2kvcm9vdC13b3Jrc3BhY2VzL19fcWNpLXBpcGVsaW5lLTQ0Mjc1MC0xL2J1aWxkL01haW4vZGVsL2xpbmstYXJyb3ctZG93bi1kaXNhYmxlZF83NGQuc3Zn" x="214" y="100" xmlns="http://www.w3.org/2000/svg"><path d="M0 .571L3 4 6 .571 5.5 0 3 2.857.5 0 0 .571z" fill="#999"/></svg><svg width="6" height="4" viewBox="0 0 6 4" id="L2RhdGEvX19xY2kvcm9vdC13b3Jrc3BhY2VzL19fcWNpLXBpcGVsaW5lLTQ0Mjc1MC0xL2J1aWxkL01haW4vZGVsL2xpbmstYXJyb3ctZG93bi1ob3Zlcl84NDYuc3Zn" x="214" y="116" xmlns="http://www.w3.org/2000/svg"><path d="M0 .571L3 4 6 .571 5.5 0 3 2.857.5 0 0 .571z" fill="#00A4FF"/></svg><svg width="6" height="4" viewBox="0 0 6 4" id="L2RhdGEvX19xY2kvcm9vdC13b3Jrc3BhY2VzL19fcWNpLXBpcGVsaW5lLTQ0Mjc1MC0xL2J1aWxkL01haW4vZGVsL2xpbmstYXJyb3ctZG93bl9mZTIuc3Zn" x="153" y="93" xmlns="http://www.w3.org/2000/svg"><path d="M0 .571L3 4 6 .571 5.5 0 3 2.857.5 0 0 .571z" fill="#333"/></svg><svg width="6" height="10" viewBox="0 0 6 10" id="L2RhdGEvX19xY2kvcm9vdC13b3Jrc3BhY2VzL19fcWNpLXBpcGVsaW5lLTQ0Mjc1MC0xL2J1aWxkL01haW4vZGVsL2xpbmstYXJyb3ctZGlzYWJsZWRfNzEyLnN2Zw==" x="16" y="145" xmlns="http://www.w3.org/2000/svg"><path d="M3.6 5L0 1.25 1.2 0 6 5 4.8 6.25 1.2 10 0 8.75z" fill="#999" fill-rule="evenodd"/></svg><svg width="6" height="10" viewBox="0 0 6 10" id="L2RhdGEvX19xY2kvcm9vdC13b3Jrc3BhY2VzL19fcWNpLXBpcGVsaW5lLTQ0Mjc1MC0xL2J1aWxkL01haW4vZGVsL2xpbmstYXJyb3ctbGVmdC13aGl0ZV83MDguc3Zn" x="22" y="145" xmlns="http://www.w3.org/2000/svg"><path d="M2.4 5L6 1.25 4.8 0 0 5l1.2 1.25L4.8 10 6 8.75z" fill="#fff" fill-rule="evenodd"/></svg><svg width="6" height="10" viewBox="0 0 6 10" id="L2RhdGEvX19xY2kvcm9vdC13b3Jrc3BhY2VzL19fcWNpLXBpcGVsaW5lLTQ0Mjc1MC0xL2J1aWxkL01haW4vZGVsL2xpbmstYXJyb3ctbGVmdC1kaXNhYmxlZF80YzIuc3Zn" x="28" y="145" xmlns="http://www.w3.org/2000/svg"><path d="M2.4 5L6 1.25 4.8 0 0 5l1.2 1.25L4.8 10 6 8.75z" fill="#999" fill-rule="evenodd"/></svg><svg width="6" height="10" viewBox="0 0 6 10" id="L2RhdGEvX19xY2kvcm9vdC13b3Jrc3BhY2VzL19fcWNpLXBpcGVsaW5lLTQ0Mjc1MC0xL2J1aWxkL01haW4vZGVsL2xpbmstYXJyb3ctbGVmdC1ncmF5XzExZS5zdmc=" x="34" y="145" xmlns="http://www.w3.org/2000/svg"><path d="M2.4 5L6 1.25 4.8 0 0 5l1.2 1.25L4.8 10 6 8.75z" fill="#666" fill-rule="evenodd"/></svg><svg width="5" height="8" viewBox="0 0 5 8" id="L2RhdGEvX19xY2kvcm9vdC13b3Jrc3BhY2VzL19fcWNpLXBpcGVsaW5lLTQ0Mjc1MC0xL2J1aWxkL01haW4vZGVsL2xpbmstYXJyb3ctbGVmdC1zLWRpc2FibGVkX2ZhOC5zdmc=" x="38" y="161" xmlns="http://www.w3.org/2000/svg"><path d="M2.044 4L5 1.031 3.978 0 0 4l3.978 4L5 6.969z" fill="#999" fill-rule="evenodd"/></svg><svg width="5" height="8" viewBox="0 0 5 8" id="L2RhdGEvX19xY2kvcm9vdC13b3Jrc3BhY2VzL19fcWNpLXBpcGVsaW5lLTQ0Mjc1MC0xL2J1aWxkL01haW4vZGVsL2xpbmstYXJyb3ctbGVmdC1zLWdyYXlfYTQ2LnN2Zw==" x="43" y="161" xmlns="http://www.w3.org/2000/svg"><path d="M2.044 4L5 1.031 3.978 0 0 4l3.978 4L5 6.969z" fill="#666" fill-rule="evenodd"/></svg><svg width="5" height="8" viewBox="0 0 5 8" id="L2RhdGEvX19xY2kvcm9vdC13b3Jrc3BhY2VzL19fcWNpLXBpcGVsaW5lLTQ0Mjc1MC0xL2J1aWxkL01haW4vZGVsL2xpbmstYXJyb3ctbGVmdC1zLXdoaXRlX2E3ZC5zdmc=" x="48" y="161" xmlns="http://www.w3.org/2000/svg"><path d="M2.044 4L5 1.031 3.978 0 0 4l3.978 4L5 6.969z" fill="#fff" fill-rule="evenodd"/></svg><svg width="5" height="8" viewBox="0 0 5 8" id="L2RhdGEvX19xY2kvcm9vdC13b3Jrc3BhY2VzL19fcWNpLXBpcGVsaW5lLTQ0Mjc1MC0xL2J1aWxkL01haW4vZGVsL2xpbmstYXJyb3ctbGVmdC1zXzAyZC5zdmc=" x="53" y="161" xmlns="http://www.w3.org/2000/svg"><path d="M2.044 4L5 1.031 3.978 0 0 4l3.978 4L5 6.969z" fill="#00A4FF" fill-rule="evenodd"/></svg><svg width="6" height="10" viewBox="0 0 6 10" id="L2RhdGEvX19xY2kvcm9vdC13b3Jrc3BhY2VzL19fcWNpLXBpcGVsaW5lLTQ0Mjc1MC0xL2J1aWxkL01haW4vZGVsL2xpbmstYXJyb3ctbGVmdF9lOWQuc3Zn" x="40" y="145" xmlns="http://www.w3.org/2000/svg"><path d="M2.4 5L6 1.25 4.8 0 0 5l1.2 1.25L4.8 10 6 8.75z" fill="#00A4FF" fill-rule="evenodd"/></svg><svg width="5" height="8" viewBox="0 0 5 8" id="L2RhdGEvX19xY2kvcm9vdC13b3Jrc3BhY2VzL19fcWNpLXBpcGVsaW5lLTQ0Mjc1MC0xL2J1aWxkL01haW4vZGVsL2xpbmstYXJyb3ctc19iNzMuc3Zn" x="58" y="161" xmlns="http://www.w3.org/2000/svg"><path d="M2.956 4L0 1.031 1.022 0 5 4 1.022 8 0 6.969z" fill="#00A4FF" fill-rule="evenodd"/></svg><svg width="5" height="8" viewBox="0 0 5 8" id="L2RhdGEvX19xY2kvcm9vdC13b3Jrc3BhY2VzL19fcWNpLXBpcGVsaW5lLTQ0Mjc1MC0xL2J1aWxkL01haW4vZGVsL2xpbmstYXJyb3ctcy13aGl0ZV9jNjMuc3Zn" x="63" y="161" xmlns="http://www.w3.org/2000/svg"><path d="M2.956 4L0 1.031 1.022 0 5 4 1.022 8 0 6.969z" fill="#fff" fill-rule="evenodd"/></svg><svg width="5" height="8" viewBox="0 0 5 8" id="L2RhdGEvX19xY2kvcm9vdC13b3Jrc3BhY2VzL19fcWNpLXBpcGVsaW5lLTQ0Mjc1MC0xL2J1aWxkL01haW4vZGVsL2xpbmstYXJyb3ctcy1kaXNhYmxlZF85MTcuc3Zn" x="68" y="161" xmlns="http://www.w3.org/2000/svg"><path d="M2.956 4L0 1.031 1.022 0 5 4 1.022 8 0 6.969z" fill="#999" fill-rule="evenodd"/></svg><svg width="5" height="8" viewBox="0 0 5 8" id="L2RhdGEvX19xY2kvcm9vdC13b3Jrc3BhY2VzL19fcWNpLXBpcGVsaW5lLTQ0Mjc1MC0xL2J1aWxkL01haW4vZGVsL2xpbmstYXJyb3ctcy1ncmF5XzgxNy5zdmc=" x="73" y="161" xmlns="http://www.w3.org/2000/svg"><path d="M2.956 4L0 1.031 1.022 0 5 4 1.022 8 0 6.969z" fill="#666" fill-rule="evenodd"/></svg><svg width="6" height="10" viewBox="0 0 6 10" id="L2RhdGEvX19xY2kvcm9vdC13b3Jrc3BhY2VzL19fcWNpLXBpcGVsaW5lLTQ0Mjc1MC0xL2J1aWxkL01haW4vZGVsL2xpbmstYXJyb3ctd2hpdGVfNDNkLnN2Zw==" x="46" y="145" xmlns="http://www.w3.org/2000/svg"><path d="M3.6 5L0 1.25 1.2 0 6 5 4.8 6.25 1.2 10 0 8.75z" fill="#fff" fill-rule="evenodd"/></svg><svg width="10" height="6" viewBox="0 0 10 6" id="L2RhdGEvX19xY2kvcm9vdC13b3Jrc3BhY2VzL19fcWNpLXBpcGVsaW5lLTQ0Mjc1MC0xL2J1aWxkL01haW4vZGVsL2xpbmstYXJyb3ctdG9wLWRpc2FibGVkX2Y4OS5zdmc=" x="52" y="145" xmlns="http://www.w3.org/2000/svg"><path d="M5 2.4L8.75 6 10 4.8 5 0 3.75 1.2 0 4.8 1.25 6z" fill="#999" fill-rule="evenodd"/></svg><svg width="10" height="6" viewBox="0 0 10 6" id="L2RhdGEvX19xY2kvcm9vdC13b3Jrc3BhY2VzL19fcWNpLXBpcGVsaW5lLTQ0Mjc1MC0xL2J1aWxkL01haW4vZGVsL2xpbmstYXJyb3ctdG9wLWdyYXlfYTNlLnN2Zw==" x="62" y="145" xmlns="http://www.w3.org/2000/svg"><path d="M5 2.4L8.75 6 10 4.8 5 0 3.75 1.2 0 4.8 1.25 6z" fill="#666" fill-rule="evenodd"/></svg><svg width="8" height="5" viewBox="0 0 8 5" id="L2RhdGEvX19xY2kvcm9vdC13b3Jrc3BhY2VzL19fcWNpLXBpcGVsaW5lLTQ0Mjc1MC0xL2J1aWxkL01haW4vZGVsL2xpbmstYXJyb3ctdG9wLXMtZ3JheV9mYTMuc3Zn" x="114" y="76" xmlns="http://www.w3.org/2000/svg"><path d="M4 2.044L6.969 5 8 3.978 4 0 0 3.977 1.031 5z" fill="#666" fill-rule="evenodd"/></svg><svg width="8" height="5" viewBox="0 0 8 5" id="L2RhdGEvX19xY2kvcm9vdC13b3Jrc3BhY2VzL19fcWNpLXBpcGVsaW5lLTQ0Mjc1MC0xL2J1aWxkL01haW4vZGVsL2xpbmstYXJyb3ctdG9wLXMtZGlzYWJsZWRfOTJhLnN2Zw==" x="122" y="76" xmlns="http://www.w3.org/2000/svg"><path d="M4 2.044L6.969 5 8 3.978 4 0 0 3.977 1.031 5z" fill="#999" fill-rule="evenodd"/></svg><svg width="8" height="5" viewBox="0 0 8 5" id="L2RhdGEvX19xY2kvcm9vdC13b3Jrc3BhY2VzL19fcWNpLXBpcGVsaW5lLTQ0Mjc1MC0xL2J1aWxkL01haW4vZGVsL2xpbmstYXJyb3ctdG9wLXMtd2hpdGVfMGM0LnN2Zw==" x="130" y="76" xmlns="http://www.w3.org/2000/svg"><path d="M4 2.044L6.969 5 8 3.978 4 0 0 3.977 1.031 5z" fill="#fff" fill-rule="evenodd"/></svg><svg width="8" height="5" viewBox="0 0 8 5" id="L2RhdGEvX19xY2kvcm9vdC13b3Jrc3BhY2VzL19fcWNpLXBpcGVsaW5lLTQ0Mjc1MC0xL2J1aWxkL01haW4vZGVsL2xpbmstYXJyb3ctdG9wLXNfNzZkLnN2Zw==" x="138" y="76" xmlns="http://www.w3.org/2000/svg"><path d="M4 2.044L6.969 5 8 3.978 4 0 0 3.977 1.031 5z" fill="#00A4FF" fill-rule="evenodd"/></svg><svg width="10" height="6" viewBox="0 0 10 6" id="L2RhdGEvX19xY2kvcm9vdC13b3Jrc3BhY2VzL19fcWNpLXBpcGVsaW5lLTQ0Mjc1MC0xL2J1aWxkL01haW4vZGVsL2xpbmstYXJyb3ctdG9wLXdoaXRlXzExYy5zdmc=" x="72" y="145" xmlns="http://www.w3.org/2000/svg"><path d="M5 2.4L8.75 6 10 4.8 5 0 3.75 1.2 0 4.8 1.25 6z" fill="#fff" fill-rule="evenodd"/></svg><svg width="10" height="6" viewBox="0 0 10 6" id="L2RhdGEvX19xY2kvcm9vdC13b3Jrc3BhY2VzL19fcWNpLXBpcGVsaW5lLTQ0Mjc1MC0xL2J1aWxkL01haW4vZGVsL2xpbmstYXJyb3ctdG9wXzdhMS5zdmc=" x="82" y="145" xmlns="http://www.w3.org/2000/svg"><path d="M5 2.4L8.75 6 10 4.8 5 0 3.75 1.2 0 4.8 1.25 6z" fill="#00A4FF" fill-rule="evenodd"/></svg><svg width="6" height="10" viewBox="0 0 6 10" id="L2RhdGEvX19xY2kvcm9vdC13b3Jrc3BhY2VzL19fcWNpLXBpcGVsaW5lLTQ0Mjc1MC0xL2J1aWxkL01haW4vZGVsL2xpbmstYXJyb3dfNGFiLnN2Zw==" y="161" xmlns="http://www.w3.org/2000/svg"><path d="M3.6 5L0 1.25 1.2 0 6 5 4.8 6.25 1.2 10 0 8.75z" fill="#00A4FF" fill-rule="evenodd"/></svg><svg width="16" height="16" viewBox="0 0 16 16" id="L2RhdGEvX19xY2kvcm9vdC13b3Jrc3BhY2VzL19fcWNpLXBpcGVsaW5lLTQ0Mjc1MC0xL2J1aWxkL01haW4vZGVsL3BsYXlfNWUxLnN2Zw==" x="128" y="127" xmlns="http://www.w3.org/2000/svg"><g fill="none" fill-rule="evenodd"><path d="M0 0h16v16H0z"/><path d="M8 0a8 8 0 110 16A8 8 0 018 0zm0 2a6 6 0 100 12A6 6 0 008 2zM6.5 5l4 3-4 3V5z" fill="#FFF" fill-rule="nonzero"/></g></svg><svg width="57" height="46" viewBox="0 0 57 46" id="L2RhdGEvX19xY2kvcm9vdC13b3Jrc3BhY2VzL19fcWNpLXBpcGVsaW5lLTQ0Mjc1MC0xL2J1aWxkL01haW4vZGVsL3F1b3RlXzM3MS5zdmc=" x="166" xmlns="http://www.w3.org/2000/svg"><path d="M17.56 46V33.02c.191-9.352 3.245-18.068 9.162-26.149L16.606 0c-4.9 4.072-8.892 9.29-11.977 15.651C1.543 22.014 0 28.44 0 34.93V46h17.56zm30.062 0V33.02c.191-9.352 3.245-18.068 9.162-26.149L46.668 0c-4.899 4.072-8.891 9.29-11.977 15.651-3.086 6.363-4.629 12.789-4.629 19.278V46h17.56z" fill="#E3E8ED" fill-rule="nonzero"/></svg><svg width="16" height="16" viewBox="0 0 16 16" id="L2RhdGEvX19xY2kvcm9vdC13b3Jrc3BhY2VzL19fcWNpLXBpcGVsaW5lLTQ0Mjc1MC0xL2J1aWxkL01haW4vZGVsL3RwbS1jYXNlMy1pY29uLWFycm93LWJsdWVfOTJkLnN2Zw==" x="144" y="127" xmlns="http://www.w3.org/2000/svg"><g fill="none" fill-rule="evenodd"><path d="M0 0v16h16V0z"/><path d="M11.778 8.164L10.364 6.75 5.414 1.8 4 3.214l4.95 4.95L4 13.114l1.414 1.414 6.364-6.364z" fill="#0052d9"/></g></svg><svg width="16" height="16" viewBox="0 0 16 16" id="L2RhdGEvX19xY2kvcm9vdC13b3Jrc3BhY2VzL19fcWNpLXBpcGVsaW5lLTQ0Mjc1MC0xL2J1aWxkL01haW4vZGVsL3RwbS1jYXNlMy1pY29uLWFycm93XzFjYS5zdmc=" y="145" xmlns="http://www.w3.org/2000/svg"><g fill="none" fill-rule="evenodd"><path d="M0 0v16h16V0z"/><path d="M11.778 8.164L10.364 6.75 5.414 1.8 4 3.214l4.95 4.95L4 13.114l1.414 1.414 6.364-6.364z" fill="#A4AAB3"/></g></svg><svg width="8" height="5" viewBox="0 0 8 5" id="L2RhdGEvX19xY2kvcm9vdC13b3Jrc3BhY2VzL19fcWNpLXBpcGVsaW5lLTQ0Mjc1MC0xL2J1aWxkL01haW4vZGVsL3RwbS1saW5rLWFycm93LWJvdHRvbS1zXzM4YS5zdmc=" x="146" y="76" xmlns="http://www.w3.org/2000/svg"><path d="M4 2.956L6.969 0 8 1.022 4 5 0 1.023 1.031 0z" fill="#0052D9" fill-rule="evenodd"/></svg><svg width="10" height="6" viewBox="0 0 10 6" id="L2RhdGEvX19xY2kvcm9vdC13b3Jrc3BhY2VzL19fcWNpLXBpcGVsaW5lLTQ0Mjc1MC0xL2J1aWxkL01haW4vZGVsL3RwbS1saW5rLWFycm93LWJvdHRvbV85ZjQuc3Zn" x="92" y="145" xmlns="http://www.w3.org/2000/svg"><path d="M5 3.6L8.75 0 10 1.2 5 6 3.75 4.8 0 1.2 1.25 0z" fill="#0052D9" fill-rule="evenodd"/></svg><svg width="5" height="8" viewBox="0 0 5 8" id="L2RhdGEvX19xY2kvcm9vdC13b3Jrc3BhY2VzL19fcWNpLXBpcGVsaW5lLTQ0Mjc1MC0xL2J1aWxkL01haW4vZGVsL3RwbS1saW5rLWFycm93LWxlZnQtc180Yzcuc3Zn" x="78" y="161" xmlns="http://www.w3.org/2000/svg"><path d="M2.044 4L5 1.031 3.978 0 0 4l3.978 4L5 6.969z" fill="#0052D9" fill-rule="evenodd"/></svg><svg width="6" height="10" viewBox="0 0 6 10" id="L2RhdGEvX19xY2kvcm9vdC13b3Jrc3BhY2VzL19fcWNpLXBpcGVsaW5lLTQ0Mjc1MC0xL2J1aWxkL01haW4vZGVsL3RwbS1saW5rLWFycm93LWxlZnRfODA3LnN2Zw==" x="6" y="161" xmlns="http://www.w3.org/2000/svg"><path d="M2.4 5L6 1.25 4.8 0 0 5l1.2 1.25L4.8 10 6 8.75z" fill="#0052D9" fill-rule="evenodd"/></svg><svg width="5" height="8" viewBox="0 0 5 8" id="L2RhdGEvX19xY2kvcm9vdC13b3Jrc3BhY2VzL19fcWNpLXBpcGVsaW5lLTQ0Mjc1MC0xL2J1aWxkL01haW4vZGVsL3RwbS1saW5rLWFycm93LXNfZDBlLnN2Zw==" x="83" y="161" xmlns="http://www.w3.org/2000/svg"><path d="M2.956 4L0 1.031 1.022 0 5 4 1.022 8 0 6.969z" fill="#0052D9" fill-rule="evenodd"/></svg><svg width="8" height="5" viewBox="0 0 8 5" id="L2RhdGEvX19xY2kvcm9vdC13b3Jrc3BhY2VzL19fcWNpLXBpcGVsaW5lLTQ0Mjc1MC0xL2J1aWxkL01haW4vZGVsL3RwbS1saW5rLWFycm93LXRvcC1zXzljOC5zdmc=" x="154" y="76" xmlns="http://www.w3.org/2000/svg"><path d="M4 2.044L6.969 5 8 3.978 4 0 0 3.977 1.031 5z" fill="#0052D9" fill-rule="evenodd"/></svg><svg width="10" height="6" viewBox="0 0 10 6" id="L2RhdGEvX19xY2kvcm9vdC13b3Jrc3BhY2VzL19fcWNpLXBpcGVsaW5lLTQ0Mjc1MC0xL2J1aWxkL01haW4vZGVsL3RwbS1saW5rLWFycm93LXRvcF9kOTEuc3Zn" x="102" y="145" xmlns="http://www.w3.org/2000/svg"><path d="M5 2.4L8.75 6 10 4.8 5 0 3.75 1.2 0 4.8 1.25 6z" fill="#0052D9" fill-rule="evenodd"/></svg><svg width="6" height="10" viewBox="0 0 6 10" id="L2RhdGEvX19xY2kvcm9vdC13b3Jrc3BhY2VzL19fcWNpLXBpcGVsaW5lLTQ0Mjc1MC0xL2J1aWxkL01haW4vZGVsL3RwbS1saW5rLWFycm93X2ViMC5zdmc=" x="12" y="161" xmlns="http://www.w3.org/2000/svg"><path d="M5.834 4.877l-1.061 1.06L1.061 9.65 0 8.59l3.713-3.713L0 1.165 1.06.105l4.774 4.772z" fill="#0052D9" fill-rule="evenodd"/></svg><svg width="24" height="24" viewBox="0 0 24 24" id="L2RhdGEvX19xY2kvcm9vdC13b3Jrc3BhY2VzL19fcWNpLXBpcGVsaW5lLTQ0Mjc1MC0xL2J1aWxkL01haW4vZGVsL3RwbTEtZmFxLWljb25fN2Y4LnN2Zw==" x="190" y="46" xmlns="http://www.w3.org/2000/svg"><g fill="none" fill-rule="evenodd"><path d="M0 0h24v24H0z"/><path fill="#A4AAB3" d="M4 11h16v2H4z"/><path fill="#A4AAB3" d="M11 20V4h2v16z"/></g></svg><svg width="8" height="10" viewBox="0 0 8 10" id="L2RhdGEvX19xY2kvcm9vdC13b3Jrc3BhY2VzL19fcWNpLXBpcGVsaW5lLTQ0Mjc1MC0xL2J1aWxkL01haW4vZGVsL3ZpZGVvLWljb25fNTgyLnN2Zw==" x="18" y="161" xmlns="http://www.w3.org/2000/svg"><defs><filter x="-14.3%" y="-11.4%" width="128.6%" height="122.9%" filterUnits="objectBoundingBox" id="dlb"><feGaussianBlur stdDeviation=".5" in="SourceAlpha" result="shadowBlurInner1"/><feOffset dy="1" in="shadowBlurInner1" result="shadowOffsetInner1"/><feComposite in="shadowOffsetInner1" in2="SourceAlpha" operator="arithmetic" k2="-1" k3="1" result="shadowInnerInner1"/><feColorMatrix values="0 0 0 0 0 0 0 0 0 0 0 0 0 0 0 0 0 0 0.252813593 0" in="shadowInnerInner1"/></filter><path id="dla" d="M16.042 9.625l-7 4.633 7 4.117z"/></defs><g transform="matrix(-1 0 0 1 17 -9)" fill="none" fill-rule="evenodd"><use fill="#FFF" xlink:href="#dla"/><use fill="#000" filter="url(#dlb)" xlink:href="#dla"/></g></svg></svg>