<svg width="144" height="144" viewBox="0 0 144 144" fill="none" xmlns="http://www.w3.org/2000/svg">
<path d="M144 0H0V144H144V0Z" fill="white"/>
<path d="M14.1375 10.8311H10.8311V14.1375H14.1375V10.8311Z" fill="black"/>
<path d="M17.4439 10.8311H14.1375V14.1375H17.4439V10.8311Z" fill="black"/>
<path d="M20.7503 10.8311H17.4438V14.1375H20.7503V10.8311Z" fill="black"/>
<path d="M24.0567 10.8311H20.7502V14.1375H24.0567V10.8311Z" fill="black"/>
<path d="M27.3633 10.8311H24.0569V14.1375H27.3633V10.8311Z" fill="black"/>
<path d="M30.6697 10.8311H27.3633V14.1375H30.6697V10.8311Z" fill="black"/>
<path d="M33.9761 10.8311H30.6697V14.1375H33.9761V10.8311Z" fill="black"/>
<path d="M40.5889 10.8311H37.2825V14.1375H40.5889V10.8311Z" fill="black"/>
<path d="M43.8953 10.8311H40.5889V14.1375H43.8953V10.8311Z" fill="black"/>
<path d="M47.2017 10.8311H43.8953V14.1375H47.2017V10.8311Z" fill="black"/>
<path d="M67.0403 10.8311H63.7339V14.1375H67.0403V10.8311Z" fill="black"/>
<path d="M80.2661 10.8311H76.9597V14.1375H80.2661V10.8311Z" fill="black"/>
<path d="M96.7984 10.8311H93.4919V14.1375H96.7984V10.8311Z" fill="black"/>
<path d="M100.105 10.8311H96.7983V14.1375H100.105V10.8311Z" fill="black"/>
<path d="M103.411 10.8311H100.105V14.1375H103.411V10.8311Z" fill="black"/>
<path d="M113.331 10.8311H110.024V14.1375H113.331V10.8311Z" fill="black"/>
<path d="M116.637 10.8311H113.331V14.1375H116.637V10.8311Z" fill="black"/>
<path d="M119.943 10.8311H116.637V14.1375H119.943V10.8311Z" fill="black"/>
<path d="M123.25 10.8311H119.943V14.1375H123.25V10.8311Z" fill="black"/>
<path d="M126.556 10.8311H123.25V14.1375H126.556V10.8311Z" fill="black"/>
<path d="M129.863 10.8311H126.556V14.1375H129.863V10.8311Z" fill="black"/>
<path d="M133.169 10.8311H129.863V14.1375H133.169V10.8311Z" fill="black"/>
<path d="M14.1375 14.1375H10.8311V17.4439H14.1375V14.1375Z" fill="black"/>
<path d="M33.9761 14.1375H30.6697V17.4439H33.9761V14.1375Z" fill="black"/>
<path d="M43.8953 14.1375H40.5889V17.4439H43.8953V14.1375Z" fill="black"/>
<path d="M47.2017 14.1375H43.8953V17.4439H47.2017V14.1375Z" fill="black"/>
<path d="M50.5083 14.1375H47.2019V17.4439H50.5083V14.1375Z" fill="black"/>
<path d="M53.8147 14.1375H50.5083V17.4439H53.8147V14.1375Z" fill="black"/>
<path d="M60.4275 14.1375H57.1211V17.4439H60.4275V14.1375Z" fill="black"/>
<path d="M67.0403 14.1375H63.7339V17.4439H67.0403V14.1375Z" fill="black"/>
<path d="M70.347 14.1375H67.0405V17.4439H70.347V14.1375Z" fill="black"/>
<path d="M76.9597 14.1375H73.6533V17.4439H76.9597V14.1375Z" fill="black"/>
<path d="M90.1856 14.1375H86.8792V17.4439H90.1856V14.1375Z" fill="black"/>
<path d="M93.492 14.1375H90.1855V17.4439H93.492V14.1375Z" fill="black"/>
<path d="M103.411 14.1375H100.105V17.4439H103.411V14.1375Z" fill="black"/>
<path d="M106.718 14.1375H103.411V17.4439H106.718V14.1375Z" fill="black"/>
<path d="M113.331 14.1375H110.024V17.4439H113.331V14.1375Z" fill="black"/>
<path d="M133.169 14.1375H129.863V17.4439H133.169V14.1375Z" fill="black"/>
<path d="M14.1375 17.4438H10.8311V20.7503H14.1375V17.4438Z" fill="black"/>
<path d="M20.7503 17.4438H17.4438V20.7503H20.7503V17.4438Z" fill="black"/>
<path d="M24.0567 17.4438H20.7502V20.7503H24.0567V17.4438Z" fill="black"/>
<path d="M27.3633 17.4438H24.0569V20.7503H27.3633V17.4438Z" fill="black"/>
<path d="M33.9761 17.4438H30.6697V20.7503H33.9761V17.4438Z" fill="black"/>
<path d="M53.8147 17.4438H50.5083V20.7503H53.8147V17.4438Z" fill="black"/>
<path d="M67.0403 17.4438H63.7339V20.7503H67.0403V17.4438Z" fill="black"/>
<path d="M70.347 17.4438H67.0405V20.7503H70.347V17.4438Z" fill="black"/>
<path d="M73.6534 17.4438H70.3469V20.7503H73.6534V17.4438Z" fill="black"/>
<path d="M80.2661 17.4438H76.9597V20.7503H80.2661V17.4438Z" fill="black"/>
<path d="M83.5726 17.4438H80.2661V20.7503H83.5726V17.4438Z" fill="black"/>
<path d="M86.8789 17.4438H83.5725V20.7503H86.8789V17.4438Z" fill="black"/>
<path d="M90.1856 17.4438H86.8792V20.7503H90.1856V17.4438Z" fill="black"/>
<path d="M100.105 17.4438H96.7983V20.7503H100.105V17.4438Z" fill="black"/>
<path d="M103.411 17.4438H100.105V20.7503H103.411V17.4438Z" fill="black"/>
<path d="M106.718 17.4438H103.411V20.7503H106.718V17.4438Z" fill="black"/>
<path d="M113.331 17.4438H110.024V20.7503H113.331V17.4438Z" fill="black"/>
<path d="M119.943 17.4438H116.637V20.7503H119.943V17.4438Z" fill="black"/>
<path d="M123.25 17.4438H119.943V20.7503H123.25V17.4438Z" fill="black"/>
<path d="M126.556 17.4438H123.25V20.7503H126.556V17.4438Z" fill="black"/>
<path d="M133.169 17.4438H129.863V20.7503H133.169V17.4438Z" fill="black"/>
<path d="M14.1375 20.7502H10.8311V24.0567H14.1375V20.7502Z" fill="black"/>
<path d="M20.7503 20.7502H17.4438V24.0567H20.7503V20.7502Z" fill="black"/>
<path d="M24.0567 20.7502H20.7502V24.0567H24.0567V20.7502Z" fill="black"/>
<path d="M27.3633 20.7502H24.0569V24.0567H27.3633V20.7502Z" fill="black"/>
<path d="M33.9761 20.7502H30.6697V24.0567H33.9761V20.7502Z" fill="black"/>
<path d="M40.5889 20.7502H37.2825V24.0567H40.5889V20.7502Z" fill="black"/>
<path d="M80.2661 20.7502H76.9597V24.0567H80.2661V20.7502Z" fill="black"/>
<path d="M86.8789 20.7502H83.5725V24.0567H86.8789V20.7502Z" fill="black"/>
<path d="M96.7984 20.7502H93.4919V24.0567H96.7984V20.7502Z" fill="black"/>
<path d="M100.105 20.7502H96.7983V24.0567H100.105V20.7502Z" fill="black"/>
<path d="M103.411 20.7502H100.105V24.0567H103.411V20.7502Z" fill="black"/>
<path d="M106.718 20.7502H103.411V24.0567H106.718V20.7502Z" fill="black"/>
<path d="M113.331 20.7502H110.024V24.0567H113.331V20.7502Z" fill="black"/>
<path d="M119.943 20.7502H116.637V24.0567H119.943V20.7502Z" fill="black"/>
<path d="M123.25 20.7502H119.943V24.0567H123.25V20.7502Z" fill="black"/>
<path d="M126.556 20.7502H123.25V24.0567H126.556V20.7502Z" fill="black"/>
<path d="M133.169 20.7502H129.863V24.0567H133.169V20.7502Z" fill="black"/>
<path d="M14.1375 24.0569H10.8311V27.3633H14.1375V24.0569Z" fill="black"/>
<path d="M20.7503 24.0569H17.4438V27.3633H20.7503V24.0569Z" fill="black"/>
<path d="M24.0567 24.0569H20.7502V27.3633H24.0567V24.0569Z" fill="black"/>
<path d="M27.3633 24.0569H24.0569V27.3633H27.3633V24.0569Z" fill="black"/>
<path d="M33.9761 24.0569H30.6697V27.3633H33.9761V24.0569Z" fill="black"/>
<path d="M43.8953 24.0569H40.5889V27.3633H43.8953V24.0569Z" fill="black"/>
<path d="M53.8147 24.0569H50.5083V27.3633H53.8147V24.0569Z" fill="black"/>
<path d="M57.1211 24.0569H53.8147V27.3633H57.1211V24.0569Z" fill="black"/>
<path d="M70.347 24.0569H67.0405V27.3633H70.347V24.0569Z" fill="black"/>
<path d="M76.9597 24.0569H73.6533V27.3633H76.9597V24.0569Z" fill="black"/>
<path d="M80.2661 24.0569H76.9597V27.3633H80.2661V24.0569Z" fill="black"/>
<path d="M86.8789 24.0569H83.5725V27.3633H86.8789V24.0569Z" fill="black"/>
<path d="M90.1856 24.0569H86.8792V27.3633H90.1856V24.0569Z" fill="black"/>
<path d="M93.492 24.0569H90.1855V27.3633H93.492V24.0569Z" fill="black"/>
<path d="M96.7984 24.0569H93.4919V27.3633H96.7984V24.0569Z" fill="black"/>
<path d="M100.105 24.0569H96.7983V27.3633H100.105V24.0569Z" fill="black"/>
<path d="M103.411 24.0569H100.105V27.3633H103.411V24.0569Z" fill="black"/>
<path d="M113.331 24.0569H110.024V27.3633H113.331V24.0569Z" fill="black"/>
<path d="M119.943 24.0569H116.637V27.3633H119.943V24.0569Z" fill="black"/>
<path d="M123.25 24.0569H119.943V27.3633H123.25V24.0569Z" fill="black"/>
<path d="M126.556 24.0569H123.25V27.3633H126.556V24.0569Z" fill="black"/>
<path d="M133.169 24.0569H129.863V27.3633H133.169V24.0569Z" fill="black"/>
<path d="M14.1375 27.3633H10.8311V30.6697H14.1375V27.3633Z" fill="black"/>
<path d="M33.9761 27.3633H30.6697V30.6697H33.9761V27.3633Z" fill="black"/>
<path d="M43.8953 27.3633H40.5889V30.6697H43.8953V27.3633Z" fill="black"/>
<path d="M53.8147 27.3633H50.5083V30.6697H53.8147V27.3633Z" fill="black"/>
<path d="M60.4275 27.3633H57.1211V30.6697H60.4275V27.3633Z" fill="black"/>
<path d="M63.7339 27.3633H60.4275V30.6697H63.7339V27.3633Z" fill="black"/>
<path d="M73.6534 27.3633H70.3469V30.6697H73.6534V27.3633Z" fill="black"/>
<path d="M80.2661 27.3633H76.9597V30.6697H80.2661V27.3633Z" fill="black"/>
<path d="M83.5726 27.3633H80.2661V30.6697H83.5726V27.3633Z" fill="black"/>
<path d="M90.1856 27.3633H86.8792V30.6697H90.1856V27.3633Z" fill="black"/>
<path d="M96.7984 27.3633H93.4919V30.6697H96.7984V27.3633Z" fill="black"/>
<path d="M103.411 27.3633H100.105V30.6697H103.411V27.3633Z" fill="black"/>
<path d="M106.718 27.3633H103.411V30.6697H106.718V27.3633Z" fill="black"/>
<path d="M113.331 27.3633H110.024V30.6697H113.331V27.3633Z" fill="black"/>
<path d="M133.169 27.3633H129.863V30.6697H133.169V27.3633Z" fill="black"/>
<path d="M14.1375 30.6697H10.8311V33.9761H14.1375V30.6697Z" fill="black"/>
<path d="M17.4439 30.6697H14.1375V33.9761H17.4439V30.6697Z" fill="black"/>
<path d="M20.7503 30.6697H17.4438V33.9761H20.7503V30.6697Z" fill="black"/>
<path d="M24.0567 30.6697H20.7502V33.9761H24.0567V30.6697Z" fill="black"/>
<path d="M27.3633 30.6697H24.0569V33.9761H27.3633V30.6697Z" fill="black"/>
<path d="M30.6697 30.6697H27.3633V33.9761H30.6697V30.6697Z" fill="black"/>
<path d="M33.9761 30.6697H30.6697V33.9761H33.9761V30.6697Z" fill="black"/>
<path d="M40.5889 30.6697H37.2825V33.9761H40.5889V30.6697Z" fill="black"/>
<path d="M47.2017 30.6697H43.8953V33.9761H47.2017V30.6697Z" fill="black"/>
<path d="M53.8147 30.6697H50.5083V33.9761H53.8147V30.6697Z" fill="black"/>
<path d="M60.4275 30.6697H57.1211V33.9761H60.4275V30.6697Z" fill="black"/>
<path d="M67.0403 30.6697H63.7339V33.9761H67.0403V30.6697Z" fill="black"/>
<path d="M73.6534 30.6697H70.3469V33.9761H73.6534V30.6697Z" fill="black"/>
<path d="M80.2661 30.6697H76.9597V33.9761H80.2661V30.6697Z" fill="black"/>
<path d="M86.8789 30.6697H83.5725V33.9761H86.8789V30.6697Z" fill="black"/>
<path d="M93.492 30.6697H90.1855V33.9761H93.492V30.6697Z" fill="black"/>
<path d="M100.105 30.6697H96.7983V33.9761H100.105V30.6697Z" fill="black"/>
<path d="M106.718 30.6697H103.411V33.9761H106.718V30.6697Z" fill="black"/>
<path d="M113.331 30.6697H110.024V33.9761H113.331V30.6697Z" fill="black"/>
<path d="M116.637 30.6697H113.331V33.9761H116.637V30.6697Z" fill="black"/>
<path d="M119.943 30.6697H116.637V33.9761H119.943V30.6697Z" fill="black"/>
<path d="M123.25 30.6697H119.943V33.9761H123.25V30.6697Z" fill="black"/>
<path d="M126.556 30.6697H123.25V33.9761H126.556V30.6697Z" fill="black"/>
<path d="M129.863 30.6697H126.556V33.9761H129.863V30.6697Z" fill="black"/>
<path d="M133.169 30.6697H129.863V33.9761H133.169V30.6697Z" fill="black"/>
<path d="M53.8147 33.9761H50.5083V37.2825H53.8147V33.9761Z" fill="black"/>
<path d="M57.1211 33.9761H53.8147V37.2825H57.1211V33.9761Z" fill="black"/>
<path d="M60.4275 33.9761H57.1211V37.2825H60.4275V33.9761Z" fill="black"/>
<path d="M63.7339 33.9761H60.4275V37.2825H63.7339V33.9761Z" fill="black"/>
<path d="M70.347 33.9761H67.0405V37.2825H70.347V33.9761Z" fill="black"/>
<path d="M73.6534 33.9761H70.3469V37.2825H73.6534V33.9761Z" fill="black"/>
<path d="M76.9597 33.9761H73.6533V37.2825H76.9597V33.9761Z" fill="black"/>
<path d="M86.8789 33.9761H83.5725V37.2825H86.8789V33.9761Z" fill="black"/>
<path d="M90.1856 33.9761H86.8792V37.2825H90.1856V33.9761Z" fill="black"/>
<path d="M93.492 33.9761H90.1855V37.2825H93.492V33.9761Z" fill="black"/>
<path d="M96.7984 33.9761H93.4919V37.2825H96.7984V33.9761Z" fill="black"/>
<path d="M106.718 33.9761H103.411V37.2825H106.718V33.9761Z" fill="black"/>
<path d="M20.7503 37.2825H17.4438V40.5889H20.7503V37.2825Z" fill="black"/>
<path d="M27.3633 37.2825H24.0569V40.5889H27.3633V37.2825Z" fill="black"/>
<path d="M30.6697 37.2825H27.3633V40.5889H30.6697V37.2825Z" fill="black"/>
<path d="M33.9761 37.2825H30.6697V40.5889H33.9761V37.2825Z" fill="black"/>
<path d="M40.5889 37.2825H37.2825V40.5889H40.5889V37.2825Z" fill="black"/>
<path d="M50.5083 37.2825H47.2019V40.5889H50.5083V37.2825Z" fill="black"/>
<path d="M53.8147 37.2825H50.5083V40.5889H53.8147V37.2825Z" fill="black"/>
<path d="M67.0403 37.2825H63.7339V40.5889H67.0403V37.2825Z" fill="black"/>
<path d="M73.6534 37.2825H70.3469V40.5889H73.6534V37.2825Z" fill="black"/>
<path d="M76.9597 37.2825H73.6533V40.5889H76.9597V37.2825Z" fill="black"/>
<path d="M80.2661 37.2825H76.9597V40.5889H80.2661V37.2825Z" fill="black"/>
<path d="M86.8789 37.2825H83.5725V40.5889H86.8789V37.2825Z" fill="black"/>
<path d="M90.1856 37.2825H86.8792V40.5889H90.1856V37.2825Z" fill="black"/>
<path d="M96.7984 37.2825H93.4919V40.5889H96.7984V37.2825Z" fill="black"/>
<path d="M103.411 37.2825H100.105V40.5889H103.411V37.2825Z" fill="black"/>
<path d="M110.024 37.2825H106.718V40.5889H110.024V37.2825Z" fill="black"/>
<path d="M123.25 37.2825H119.943V40.5889H123.25V37.2825Z" fill="black"/>
<path d="M133.169 37.2825H129.863V40.5889H133.169V37.2825Z" fill="black"/>
<path d="M17.4439 40.5889H14.1375V43.8953H17.4439V40.5889Z" fill="black"/>
<path d="M20.7503 40.5889H17.4438V43.8953H20.7503V40.5889Z" fill="black"/>
<path d="M27.3633 40.5889H24.0569V43.8953H27.3633V40.5889Z" fill="black"/>
<path d="M47.2017 40.5889H43.8953V43.8953H47.2017V40.5889Z" fill="black"/>
<path d="M60.4275 40.5889H57.1211V43.8953H60.4275V40.5889Z" fill="black"/>
<path d="M67.0403 40.5889H63.7339V43.8953H67.0403V40.5889Z" fill="black"/>
<path d="M70.347 40.5889H67.0405V43.8953H70.347V40.5889Z" fill="black"/>
<path d="M76.9597 40.5889H73.6533V43.8953H76.9597V40.5889Z" fill="black"/>
<path d="M80.2661 40.5889H76.9597V43.8953H80.2661V40.5889Z" fill="black"/>
<path d="M83.5726 40.5889H80.2661V43.8953H83.5726V40.5889Z" fill="black"/>
<path d="M86.8789 40.5889H83.5725V43.8953H86.8789V40.5889Z" fill="black"/>
<path d="M93.492 40.5889H90.1855V43.8953H93.492V40.5889Z" fill="black"/>
<path d="M96.7984 40.5889H93.4919V43.8953H96.7984V40.5889Z" fill="black"/>
<path d="M106.718 40.5889H103.411V43.8953H106.718V40.5889Z" fill="black"/>
<path d="M123.25 40.5889H119.943V43.8953H123.25V40.5889Z" fill="black"/>
<path d="M126.556 40.5889H123.25V43.8953H126.556V40.5889Z" fill="black"/>
<path d="M129.863 40.5889H126.556V43.8953H129.863V40.5889Z" fill="black"/>
<path d="M133.169 40.5889H129.863V43.8953H133.169V40.5889Z" fill="black"/>
<path d="M14.1375 43.8953H10.8311V47.2017H14.1375V43.8953Z" fill="black"/>
<path d="M24.0567 43.8953H20.7502V47.2017H24.0567V43.8953Z" fill="black"/>
<path d="M27.3633 43.8953H24.0569V47.2017H27.3633V43.8953Z" fill="black"/>
<path d="M30.6697 43.8953H27.3633V47.2017H30.6697V43.8953Z" fill="black"/>
<path d="M33.9761 43.8953H30.6697V47.2017H33.9761V43.8953Z" fill="black"/>
<path d="M37.2825 43.8953H33.9761V47.2017H37.2825V43.8953Z" fill="black"/>
<path d="M40.5889 43.8953H37.2825V47.2017H40.5889V43.8953Z" fill="black"/>
<path d="M53.8147 43.8953H50.5083V47.2017H53.8147V43.8953Z" fill="black"/>
<path d="M57.1211 43.8953H53.8147V47.2017H57.1211V43.8953Z" fill="black"/>
<path d="M63.7339 43.8953H60.4275V47.2017H63.7339V43.8953Z" fill="black"/>
<path d="M67.0403 43.8953H63.7339V47.2017H67.0403V43.8953Z" fill="black"/>
<path d="M73.6534 43.8953H70.3469V47.2017H73.6534V43.8953Z" fill="black"/>
<path d="M76.9597 43.8953H73.6533V47.2017H76.9597V43.8953Z" fill="black"/>
<path d="M80.2661 43.8953H76.9597V47.2017H80.2661V43.8953Z" fill="black"/>
<path d="M86.8789 43.8953H83.5725V47.2017H86.8789V43.8953Z" fill="black"/>
<path d="M96.7984 43.8953H93.4919V47.2017H96.7984V43.8953Z" fill="black"/>
<path d="M113.331 43.8953H110.024V47.2017H113.331V43.8953Z" fill="black"/>
<path d="M119.943 43.8953H116.637V47.2017H119.943V43.8953Z" fill="black"/>
<path d="M133.169 43.8953H129.863V47.2017H133.169V43.8953Z" fill="black"/>
<path d="M14.1375 47.2019H10.8311V50.5083H14.1375V47.2019Z" fill="black"/>
<path d="M17.4439 47.2019H14.1375V50.5083H17.4439V47.2019Z" fill="black"/>
<path d="M24.0567 47.2019H20.7502V50.5083H24.0567V47.2019Z" fill="black"/>
<path d="M30.6697 47.2019H27.3633V50.5083H30.6697V47.2019Z" fill="black"/>
<path d="M37.2825 47.2019H33.9761V50.5083H37.2825V47.2019Z" fill="black"/>
<path d="M43.8953 47.2019H40.5889V50.5083H43.8953V47.2019Z" fill="black"/>
<path d="M50.5083 47.2019H47.2019V50.5083H50.5083V47.2019Z" fill="black"/>
<path d="M67.0403 47.2019H63.7339V50.5083H67.0403V47.2019Z" fill="black"/>
<path d="M70.347 47.2019H67.0405V50.5083H70.347V47.2019Z" fill="black"/>
<path d="M80.2661 47.2019H76.9597V50.5083H80.2661V47.2019Z" fill="black"/>
<path d="M86.8789 47.2019H83.5725V50.5083H86.8789V47.2019Z" fill="black"/>
<path d="M90.1856 47.2019H86.8792V50.5083H90.1856V47.2019Z" fill="black"/>
<path d="M93.492 47.2019H90.1855V50.5083H93.492V47.2019Z" fill="black"/>
<path d="M96.7984 47.2019H93.4919V50.5083H96.7984V47.2019Z" fill="black"/>
<path d="M100.105 47.2019H96.7983V50.5083H100.105V47.2019Z" fill="black"/>
<path d="M103.411 47.2019H100.105V50.5083H103.411V47.2019Z" fill="black"/>
<path d="M110.024 47.2019H106.718V50.5083H110.024V47.2019Z" fill="black"/>
<path d="M123.25 47.2019H119.943V50.5083H123.25V47.2019Z" fill="black"/>
<path d="M129.863 47.2019H126.556V50.5083H129.863V47.2019Z" fill="black"/>
<path d="M133.169 47.2019H129.863V50.5083H133.169V47.2019Z" fill="black"/>
<path d="M14.1375 50.5083H10.8311V53.8147H14.1375V50.5083Z" fill="black"/>
<path d="M17.4439 50.5083H14.1375V53.8147H17.4439V50.5083Z" fill="black"/>
<path d="M20.7503 50.5083H17.4438V53.8147H20.7503V50.5083Z" fill="black"/>
<path d="M27.3633 50.5083H24.0569V53.8147H27.3633V50.5083Z" fill="black"/>
<path d="M30.6697 50.5083H27.3633V53.8147H30.6697V50.5083Z" fill="black"/>
<path d="M33.9761 50.5083H30.6697V53.8147H33.9761V50.5083Z" fill="black"/>
<path d="M37.2825 50.5083H33.9761V53.8147H37.2825V50.5083Z" fill="black"/>
<path d="M40.5889 50.5083H37.2825V53.8147H40.5889V50.5083Z" fill="black"/>
<path d="M43.8953 50.5083H40.5889V53.8147H43.8953V50.5083Z" fill="black"/>
<path d="M47.2017 50.5083H43.8953V53.8147H47.2017V50.5083Z" fill="black"/>
<path d="M53.8147 50.5083H50.5083V53.8147H53.8147V50.5083Z" fill="black"/>
<path d="M57.1211 50.5083H53.8147V53.8147H57.1211V50.5083Z" fill="black"/>
<path d="M70.347 50.5083H67.0405V53.8147H70.347V50.5083Z" fill="black"/>
<path d="M80.2661 50.5083H76.9597V53.8147H80.2661V50.5083Z" fill="black"/>
<path d="M86.8789 50.5083H83.5725V53.8147H86.8789V50.5083Z" fill="black"/>
<path d="M93.492 50.5083H90.1855V53.8147H93.492V50.5083Z" fill="black"/>
<path d="M96.7984 50.5083H93.4919V53.8147H96.7984V50.5083Z" fill="black"/>
<path d="M103.411 50.5083H100.105V53.8147H103.411V50.5083Z" fill="black"/>
<path d="M106.718 50.5083H103.411V53.8147H106.718V50.5083Z" fill="black"/>
<path d="M113.331 50.5083H110.024V53.8147H113.331V50.5083Z" fill="black"/>
<path d="M116.637 50.5083H113.331V53.8147H116.637V50.5083Z" fill="black"/>
<path d="M123.25 50.5083H119.943V53.8147H123.25V50.5083Z" fill="black"/>
<path d="M133.169 50.5083H129.863V53.8147H133.169V50.5083Z" fill="black"/>
<path d="M14.1375 53.8147H10.8311V57.1211H14.1375V53.8147Z" fill="black"/>
<path d="M17.4439 53.8147H14.1375V57.1211H17.4439V53.8147Z" fill="black"/>
<path d="M24.0567 53.8147H20.7502V57.1211H24.0567V53.8147Z" fill="black"/>
<path d="M27.3633 53.8147H24.0569V57.1211H27.3633V53.8147Z" fill="black"/>
<path d="M30.6697 53.8147H27.3633V57.1211H30.6697V53.8147Z" fill="black"/>
<path d="M37.2825 53.8147H33.9761V57.1211H37.2825V53.8147Z" fill="black"/>
<path d="M43.8953 53.8147H40.5889V57.1211H43.8953V53.8147Z" fill="black"/>
<path d="M47.2017 53.8147H43.8953V57.1211H47.2017V53.8147Z" fill="black"/>
<path d="M50.5083 53.8147H47.2019V57.1211H50.5083V53.8147Z" fill="black"/>
<path d="M60.4275 53.8147H57.1211V57.1211H60.4275V53.8147Z" fill="black"/>
<path d="M73.6534 53.8147H70.3469V57.1211H73.6534V53.8147Z" fill="black"/>
<path d="M86.8789 53.8147H83.5725V57.1211H86.8789V53.8147Z" fill="black"/>
<path d="M90.1856 53.8147H86.8792V57.1211H90.1856V53.8147Z" fill="black"/>
<path d="M93.492 53.8147H90.1855V57.1211H93.492V53.8147Z" fill="black"/>
<path d="M103.411 53.8147H100.105V57.1211H103.411V53.8147Z" fill="black"/>
<path d="M106.718 53.8147H103.411V57.1211H106.718V53.8147Z" fill="black"/>
<path d="M113.331 53.8147H110.024V57.1211H113.331V53.8147Z" fill="black"/>
<path d="M123.25 53.8147H119.943V57.1211H123.25V53.8147Z" fill="black"/>
<path d="M126.556 53.8147H123.25V57.1211H126.556V53.8147Z" fill="black"/>
<path d="M129.863 53.8147H126.556V57.1211H129.863V53.8147Z" fill="black"/>
<path d="M133.169 53.8147H129.863V57.1211H133.169V53.8147Z" fill="black"/>
<path d="M14.1375 57.1211H10.8311V60.4275H14.1375V57.1211Z" fill="black"/>
<path d="M20.7503 57.1211H17.4438V60.4275H20.7503V57.1211Z" fill="black"/>
<path d="M24.0567 57.1211H20.7502V60.4275H24.0567V57.1211Z" fill="black"/>
<path d="M33.9761 57.1211H30.6697V60.4275H33.9761V57.1211Z" fill="black"/>
<path d="M37.2825 57.1211H33.9761V60.4275H37.2825V57.1211Z" fill="black"/>
<path d="M43.8953 57.1211H40.5889V60.4275H43.8953V57.1211Z" fill="black"/>
<path d="M47.2017 57.1211H43.8953V60.4275H47.2017V57.1211Z" fill="black"/>
<path d="M50.5083 57.1211H47.2019V60.4275H50.5083V57.1211Z" fill="black"/>
<path d="M53.8147 57.1211H50.5083V60.4275H53.8147V57.1211Z" fill="black"/>
<path d="M60.4275 57.1211H57.1211V60.4275H60.4275V57.1211Z" fill="black"/>
<path d="M76.9597 57.1211H73.6533V60.4275H76.9597V57.1211Z" fill="black"/>
<path d="M83.5726 57.1211H80.2661V60.4275H83.5726V57.1211Z" fill="black"/>
<path d="M86.8789 57.1211H83.5725V60.4275H86.8789V57.1211Z" fill="black"/>
<path d="M90.1856 57.1211H86.8792V60.4275H90.1856V57.1211Z" fill="black"/>
<path d="M96.7984 57.1211H93.4919V60.4275H96.7984V57.1211Z" fill="black"/>
<path d="M113.331 57.1211H110.024V60.4275H113.331V57.1211Z" fill="black"/>
<path d="M116.637 57.1211H113.331V60.4275H116.637V57.1211Z" fill="black"/>
<path d="M119.943 57.1211H116.637V60.4275H119.943V57.1211Z" fill="black"/>
<path d="M126.556 57.1211H123.25V60.4275H126.556V57.1211Z" fill="black"/>
<path d="M129.863 57.1211H126.556V60.4275H129.863V57.1211Z" fill="black"/>
<path d="M133.169 57.1211H129.863V60.4275H133.169V57.1211Z" fill="black"/>
<path d="M14.1375 60.4275H10.8311V63.7339H14.1375V60.4275Z" fill="black"/>
<path d="M20.7503 60.4275H17.4438V63.7339H20.7503V60.4275Z" fill="black"/>
<path d="M27.3633 60.4275H24.0569V63.7339H27.3633V60.4275Z" fill="black"/>
<path d="M47.2017 60.4275H43.8953V63.7339H47.2017V60.4275Z" fill="black"/>
<path d="M53.8147 60.4275H50.5083V63.7339H53.8147V60.4275Z" fill="black"/>
<path d="M60.4275 60.4275H57.1211V63.7339H60.4275V60.4275Z" fill="black"/>
<path d="M70.347 60.4275H67.0405V63.7339H70.347V60.4275Z" fill="black"/>
<path d="M76.9597 60.4275H73.6533V63.7339H76.9597V60.4275Z" fill="black"/>
<path d="M80.2661 60.4275H76.9597V63.7339H80.2661V60.4275Z" fill="black"/>
<path d="M83.5726 60.4275H80.2661V63.7339H83.5726V60.4275Z" fill="black"/>
<path d="M86.8789 60.4275H83.5725V63.7339H86.8789V60.4275Z" fill="black"/>
<path d="M93.492 60.4275H90.1855V63.7339H93.492V60.4275Z" fill="black"/>
<path d="M96.7984 60.4275H93.4919V63.7339H96.7984V60.4275Z" fill="black"/>
<path d="M100.105 60.4275H96.7983V63.7339H100.105V60.4275Z" fill="black"/>
<path d="M106.718 60.4275H103.411V63.7339H106.718V60.4275Z" fill="black"/>
<path d="M129.863 60.4275H126.556V63.7339H129.863V60.4275Z" fill="black"/>
<path d="M20.7503 63.7339H17.4438V67.0403H20.7503V63.7339Z" fill="black"/>
<path d="M24.0567 63.7339H20.7502V67.0403H24.0567V63.7339Z" fill="black"/>
<path d="M27.3633 63.7339H24.0569V67.0403H27.3633V63.7339Z" fill="black"/>
<path d="M30.6697 63.7339H27.3633V67.0403H30.6697V63.7339Z" fill="black"/>
<path d="M33.9761 63.7339H30.6697V67.0403H33.9761V63.7339Z" fill="black"/>
<path d="M37.2825 63.7339H33.9761V67.0403H37.2825V63.7339Z" fill="black"/>
<path d="M40.5889 63.7339H37.2825V67.0403H40.5889V63.7339Z" fill="black"/>
<path d="M43.8953 63.7339H40.5889V67.0403H43.8953V63.7339Z" fill="black"/>
<path d="M47.2017 63.7339H43.8953V67.0403H47.2017V63.7339Z" fill="black"/>
<path d="M53.8147 63.7339H50.5083V67.0403H53.8147V63.7339Z" fill="black"/>
<path d="M57.1211 63.7339H53.8147V67.0403H57.1211V63.7339Z" fill="black"/>
<path d="M60.4275 63.7339H57.1211V67.0403H60.4275V63.7339Z" fill="black"/>
<path d="M63.7339 63.7339H60.4275V67.0403H63.7339V63.7339Z" fill="black"/>
<path d="M70.347 63.7339H67.0405V67.0403H70.347V63.7339Z" fill="black"/>
<path d="M76.9597 63.7339H73.6533V67.0403H76.9597V63.7339Z" fill="black"/>
<path d="M83.5726 63.7339H80.2661V67.0403H83.5726V63.7339Z" fill="black"/>
<path d="M86.8789 63.7339H83.5725V67.0403H86.8789V63.7339Z" fill="black"/>
<path d="M93.492 63.7339H90.1855V67.0403H93.492V63.7339Z" fill="black"/>
<path d="M96.7984 63.7339H93.4919V67.0403H96.7984V63.7339Z" fill="black"/>
<path d="M106.718 63.7339H103.411V67.0403H106.718V63.7339Z" fill="black"/>
<path d="M110.024 63.7339H106.718V67.0403H110.024V63.7339Z" fill="black"/>
<path d="M113.331 63.7339H110.024V67.0403H113.331V63.7339Z" fill="black"/>
<path d="M116.637 63.7339H113.331V67.0403H116.637V63.7339Z" fill="black"/>
<path d="M123.25 63.7339H119.943V67.0403H123.25V63.7339Z" fill="black"/>
<path d="M14.1375 67.0405H10.8311V70.347H14.1375V67.0405Z" fill="black"/>
<path d="M17.4439 67.0405H14.1375V70.347H17.4439V67.0405Z" fill="black"/>
<path d="M20.7503 67.0405H17.4438V70.347H20.7503V67.0405Z" fill="black"/>
<path d="M27.3633 67.0405H24.0569V70.347H27.3633V67.0405Z" fill="black"/>
<path d="M37.2825 67.0405H33.9761V70.347H37.2825V67.0405Z" fill="black"/>
<path d="M40.5889 67.0405H37.2825V70.347H40.5889V67.0405Z" fill="black"/>
<path d="M47.2017 67.0405H43.8953V70.347H47.2017V67.0405Z" fill="black"/>
<path d="M50.5083 67.0405H47.2019V70.347H50.5083V67.0405Z" fill="black"/>
<path d="M57.1211 67.0405H53.8147V70.347H57.1211V67.0405Z" fill="black"/>
<path d="M63.7339 67.0405H60.4275V70.347H63.7339V67.0405Z" fill="black"/>
<path d="M67.0403 67.0405H63.7339V70.347H67.0403V67.0405Z" fill="black"/>
<path d="M70.347 67.0405H67.0405V70.347H70.347V67.0405Z" fill="black"/>
<path d="M73.6534 67.0405H70.3469V70.347H73.6534V67.0405Z" fill="black"/>
<path d="M76.9597 67.0405H73.6533V70.347H76.9597V67.0405Z" fill="black"/>
<path d="M80.2661 67.0405H76.9597V70.347H80.2661V67.0405Z" fill="black"/>
<path d="M90.1856 67.0405H86.8792V70.347H90.1856V67.0405Z" fill="black"/>
<path d="M93.492 67.0405H90.1855V70.347H93.492V67.0405Z" fill="black"/>
<path d="M106.718 67.0405H103.411V70.347H106.718V67.0405Z" fill="black"/>
<path d="M113.331 67.0405H110.024V70.347H113.331V67.0405Z" fill="black"/>
<path d="M123.25 67.0405H119.943V70.347H123.25V67.0405Z" fill="black"/>
<path d="M126.556 67.0405H123.25V70.347H126.556V67.0405Z" fill="black"/>
<path d="M129.863 67.0405H126.556V70.347H129.863V67.0405Z" fill="black"/>
<path d="M133.169 67.0405H129.863V70.347H133.169V67.0405Z" fill="black"/>
<path d="M17.4439 70.3469H14.1375V73.6534H17.4439V70.3469Z" fill="black"/>
<path d="M20.7503 70.3469H17.4438V73.6534H20.7503V70.3469Z" fill="black"/>
<path d="M27.3633 70.3469H24.0569V73.6534H27.3633V70.3469Z" fill="black"/>
<path d="M33.9761 70.3469H30.6697V73.6534H33.9761V70.3469Z" fill="black"/>
<path d="M40.5889 70.3469H37.2825V73.6534H40.5889V70.3469Z" fill="black"/>
<path d="M43.8953 70.3469H40.5889V73.6534H43.8953V70.3469Z" fill="black"/>
<path d="M47.2017 70.3469H43.8953V73.6534H47.2017V70.3469Z" fill="black"/>
<path d="M53.8147 70.3469H50.5083V73.6534H53.8147V70.3469Z" fill="black"/>
<path d="M70.347 70.3469H67.0405V73.6534H70.347V70.3469Z" fill="black"/>
<path d="M76.9597 70.3469H73.6533V73.6534H76.9597V70.3469Z" fill="black"/>
<path d="M83.5726 70.3469H80.2661V73.6534H83.5726V70.3469Z" fill="black"/>
<path d="M86.8789 70.3469H83.5725V73.6534H86.8789V70.3469Z" fill="black"/>
<path d="M100.105 70.3469H96.7983V73.6534H100.105V70.3469Z" fill="black"/>
<path d="M106.718 70.3469H103.411V73.6534H106.718V70.3469Z" fill="black"/>
<path d="M123.25 70.3469H119.943V73.6534H123.25V70.3469Z" fill="black"/>
<path d="M126.556 70.3469H123.25V73.6534H126.556V70.3469Z" fill="black"/>
<path d="M129.863 70.3469H126.556V73.6534H129.863V70.3469Z" fill="black"/>
<path d="M133.169 70.3469H129.863V73.6534H133.169V70.3469Z" fill="black"/>
<path d="M20.7503 73.6533H17.4438V76.9597H20.7503V73.6533Z" fill="black"/>
<path d="M24.0567 73.6533H20.7502V76.9597H24.0567V73.6533Z" fill="black"/>
<path d="M27.3633 73.6533H24.0569V76.9597H27.3633V73.6533Z" fill="black"/>
<path d="M43.8953 73.6533H40.5889V76.9597H43.8953V73.6533Z" fill="black"/>
<path d="M47.2017 73.6533H43.8953V76.9597H47.2017V73.6533Z" fill="black"/>
<path d="M50.5083 73.6533H47.2019V76.9597H50.5083V73.6533Z" fill="black"/>
<path d="M60.4275 73.6533H57.1211V76.9597H60.4275V73.6533Z" fill="black"/>
<path d="M63.7339 73.6533H60.4275V76.9597H63.7339V73.6533Z" fill="black"/>
<path d="M67.0403 73.6533H63.7339V76.9597H67.0403V73.6533Z" fill="black"/>
<path d="M70.347 73.6533H67.0405V76.9597H70.347V73.6533Z" fill="black"/>
<path d="M76.9597 73.6533H73.6533V76.9597H76.9597V73.6533Z" fill="black"/>
<path d="M86.8789 73.6533H83.5725V76.9597H86.8789V73.6533Z" fill="black"/>
<path d="M90.1856 73.6533H86.8792V76.9597H90.1856V73.6533Z" fill="black"/>
<path d="M93.492 73.6533H90.1855V76.9597H93.492V73.6533Z" fill="black"/>
<path d="M96.7984 73.6533H93.4919V76.9597H96.7984V73.6533Z" fill="black"/>
<path d="M106.718 73.6533H103.411V76.9597H106.718V73.6533Z" fill="black"/>
<path d="M110.024 73.6533H106.718V76.9597H110.024V73.6533Z" fill="black"/>
<path d="M119.943 73.6533H116.637V76.9597H119.943V73.6533Z" fill="black"/>
<path d="M133.169 73.6533H129.863V76.9597H133.169V73.6533Z" fill="black"/>
<path d="M14.1375 76.9597H10.8311V80.2661H14.1375V76.9597Z" fill="black"/>
<path d="M20.7503 76.9597H17.4438V80.2661H20.7503V76.9597Z" fill="black"/>
<path d="M24.0567 76.9597H20.7502V80.2661H24.0567V76.9597Z" fill="black"/>
<path d="M27.3633 76.9597H24.0569V80.2661H27.3633V76.9597Z" fill="black"/>
<path d="M30.6697 76.9597H27.3633V80.2661H30.6697V76.9597Z" fill="black"/>
<path d="M33.9761 76.9597H30.6697V80.2661H33.9761V76.9597Z" fill="black"/>
<path d="M37.2825 76.9597H33.9761V80.2661H37.2825V76.9597Z" fill="black"/>
<path d="M40.5889 76.9597H37.2825V80.2661H40.5889V76.9597Z" fill="black"/>
<path d="M50.5083 76.9597H47.2019V80.2661H50.5083V76.9597Z" fill="black"/>
<path d="M53.8147 76.9597H50.5083V80.2661H53.8147V76.9597Z" fill="black"/>
<path d="M57.1211 76.9597H53.8147V80.2661H57.1211V76.9597Z" fill="black"/>
<path d="M67.0403 76.9597H63.7339V80.2661H67.0403V76.9597Z" fill="black"/>
<path d="M70.347 76.9597H67.0405V80.2661H70.347V76.9597Z" fill="black"/>
<path d="M83.5726 76.9597H80.2661V80.2661H83.5726V76.9597Z" fill="black"/>
<path d="M86.8789 76.9597H83.5725V80.2661H86.8789V76.9597Z" fill="black"/>
<path d="M90.1856 76.9597H86.8792V80.2661H90.1856V76.9597Z" fill="black"/>
<path d="M103.411 76.9597H100.105V80.2661H103.411V76.9597Z" fill="black"/>
<path d="M106.718 76.9597H103.411V80.2661H106.718V76.9597Z" fill="black"/>
<path d="M110.024 76.9597H106.718V80.2661H110.024V76.9597Z" fill="black"/>
<path d="M113.331 76.9597H110.024V80.2661H113.331V76.9597Z" fill="black"/>
<path d="M116.637 76.9597H113.331V80.2661H116.637V76.9597Z" fill="black"/>
<path d="M14.1375 80.2661H10.8311V83.5726H14.1375V80.2661Z" fill="black"/>
<path d="M30.6697 80.2661H27.3633V83.5726H30.6697V80.2661Z" fill="black"/>
<path d="M43.8953 80.2661H40.5889V83.5726H43.8953V80.2661Z" fill="black"/>
<path d="M50.5083 80.2661H47.2019V83.5726H50.5083V80.2661Z" fill="black"/>
<path d="M53.8147 80.2661H50.5083V83.5726H53.8147V80.2661Z" fill="black"/>
<path d="M57.1211 80.2661H53.8147V83.5726H57.1211V80.2661Z" fill="black"/>
<path d="M63.7339 80.2661H60.4275V83.5726H63.7339V80.2661Z" fill="black"/>
<path d="M73.6534 80.2661H70.3469V83.5726H73.6534V80.2661Z" fill="black"/>
<path d="M76.9597 80.2661H73.6533V83.5726H76.9597V80.2661Z" fill="black"/>
<path d="M80.2661 80.2661H76.9597V83.5726H80.2661V80.2661Z" fill="black"/>
<path d="M93.492 80.2661H90.1855V83.5726H93.492V80.2661Z" fill="black"/>
<path d="M110.024 80.2661H106.718V83.5726H110.024V80.2661Z" fill="black"/>
<path d="M126.556 80.2661H123.25V83.5726H126.556V80.2661Z" fill="black"/>
<path d="M133.169 80.2661H129.863V83.5726H133.169V80.2661Z" fill="black"/>
<path d="M24.0567 83.5725H20.7502V86.8789H24.0567V83.5725Z" fill="black"/>
<path d="M27.3633 83.5725H24.0569V86.8789H27.3633V83.5725Z" fill="black"/>
<path d="M30.6697 83.5725H27.3633V86.8789H30.6697V83.5725Z" fill="black"/>
<path d="M33.9761 83.5725H30.6697V86.8789H33.9761V83.5725Z" fill="black"/>
<path d="M47.2017 83.5725H43.8953V86.8789H47.2017V83.5725Z" fill="black"/>
<path d="M50.5083 83.5725H47.2019V86.8789H50.5083V83.5725Z" fill="black"/>
<path d="M53.8147 83.5725H50.5083V86.8789H53.8147V83.5725Z" fill="black"/>
<path d="M63.7339 83.5725H60.4275V86.8789H63.7339V83.5725Z" fill="black"/>
<path d="M70.347 83.5725H67.0405V86.8789H70.347V83.5725Z" fill="black"/>
<path d="M73.6534 83.5725H70.3469V86.8789H73.6534V83.5725Z" fill="black"/>
<path d="M80.2661 83.5725H76.9597V86.8789H80.2661V83.5725Z" fill="black"/>
<path d="M83.5726 83.5725H80.2661V86.8789H83.5726V83.5725Z" fill="black"/>
<path d="M86.8789 83.5725H83.5725V86.8789H86.8789V83.5725Z" fill="black"/>
<path d="M93.492 83.5725H90.1855V86.8789H93.492V83.5725Z" fill="black"/>
<path d="M110.024 83.5725H106.718V86.8789H110.024V83.5725Z" fill="black"/>
<path d="M113.331 83.5725H110.024V86.8789H113.331V83.5725Z" fill="black"/>
<path d="M119.943 83.5725H116.637V86.8789H119.943V83.5725Z" fill="black"/>
<path d="M123.25 83.5725H119.943V86.8789H123.25V83.5725Z" fill="black"/>
<path d="M129.863 83.5725H126.556V86.8789H129.863V83.5725Z" fill="black"/>
<path d="M133.169 83.5725H129.863V86.8789H133.169V83.5725Z" fill="black"/>
<path d="M20.7503 86.8792H17.4438V90.1856H20.7503V86.8792Z" fill="black"/>
<path d="M24.0567 86.8792H20.7502V90.1856H24.0567V86.8792Z" fill="black"/>
<path d="M27.3633 86.8792H24.0569V90.1856H27.3633V86.8792Z" fill="black"/>
<path d="M57.1211 86.8792H53.8147V90.1856H57.1211V86.8792Z" fill="black"/>
<path d="M60.4275 86.8792H57.1211V90.1856H60.4275V86.8792Z" fill="black"/>
<path d="M63.7339 86.8792H60.4275V90.1856H63.7339V86.8792Z" fill="black"/>
<path d="M67.0403 86.8792H63.7339V90.1856H67.0403V86.8792Z" fill="black"/>
<path d="M70.347 86.8792H67.0405V90.1856H70.347V86.8792Z" fill="black"/>
<path d="M73.6534 86.8792H70.3469V90.1856H73.6534V86.8792Z" fill="black"/>
<path d="M80.2661 86.8792H76.9597V90.1856H80.2661V86.8792Z" fill="black"/>
<path d="M83.5726 86.8792H80.2661V90.1856H83.5726V86.8792Z" fill="black"/>
<path d="M86.8789 86.8792H83.5725V90.1856H86.8789V86.8792Z" fill="black"/>
<path d="M90.1856 86.8792H86.8792V90.1856H90.1856V86.8792Z" fill="black"/>
<path d="M96.7984 86.8792H93.4919V90.1856H96.7984V86.8792Z" fill="black"/>
<path d="M106.718 86.8792H103.411V90.1856H106.718V86.8792Z" fill="black"/>
<path d="M14.1375 90.1855H10.8311V93.492H14.1375V90.1855Z" fill="black"/>
<path d="M17.4439 90.1855H14.1375V93.492H17.4439V90.1855Z" fill="black"/>
<path d="M33.9761 90.1855H30.6697V93.492H33.9761V90.1855Z" fill="black"/>
<path d="M37.2825 90.1855H33.9761V93.492H37.2825V90.1855Z" fill="black"/>
<path d="M40.5889 90.1855H37.2825V93.492H40.5889V90.1855Z" fill="black"/>
<path d="M50.5083 90.1855H47.2019V93.492H50.5083V90.1855Z" fill="black"/>
<path d="M60.4275 90.1855H57.1211V93.492H60.4275V90.1855Z" fill="black"/>
<path d="M63.7339 90.1855H60.4275V93.492H63.7339V90.1855Z" fill="black"/>
<path d="M67.0403 90.1855H63.7339V93.492H67.0403V90.1855Z" fill="black"/>
<path d="M70.347 90.1855H67.0405V93.492H70.347V90.1855Z" fill="black"/>
<path d="M76.9597 90.1855H73.6533V93.492H76.9597V90.1855Z" fill="black"/>
<path d="M86.8789 90.1855H83.5725V93.492H86.8789V90.1855Z" fill="black"/>
<path d="M90.1856 90.1855H86.8792V93.492H90.1856V90.1855Z" fill="black"/>
<path d="M93.492 90.1855H90.1855V93.492H93.492V90.1855Z" fill="black"/>
<path d="M96.7984 90.1855H93.4919V93.492H96.7984V90.1855Z" fill="black"/>
<path d="M103.411 90.1855H100.105V93.492H103.411V90.1855Z" fill="black"/>
<path d="M113.331 90.1855H110.024V93.492H113.331V90.1855Z" fill="black"/>
<path d="M129.863 90.1855H126.556V93.492H129.863V90.1855Z" fill="black"/>
<path d="M20.7503 93.4919H17.4438V96.7984H20.7503V93.4919Z" fill="black"/>
<path d="M24.0567 93.4919H20.7502V96.7984H24.0567V93.4919Z" fill="black"/>
<path d="M43.8953 93.4919H40.5889V96.7984H43.8953V93.4919Z" fill="black"/>
<path d="M47.2017 93.4919H43.8953V96.7984H47.2017V93.4919Z" fill="black"/>
<path d="M50.5083 93.4919H47.2019V96.7984H50.5083V93.4919Z" fill="black"/>
<path d="M53.8147 93.4919H50.5083V96.7984H53.8147V93.4919Z" fill="black"/>
<path d="M67.0403 93.4919H63.7339V96.7984H67.0403V93.4919Z" fill="black"/>
<path d="M70.347 93.4919H67.0405V96.7984H70.347V93.4919Z" fill="black"/>
<path d="M73.6534 93.4919H70.3469V96.7984H73.6534V93.4919Z" fill="black"/>
<path d="M76.9597 93.4919H73.6533V96.7984H76.9597V93.4919Z" fill="black"/>
<path d="M83.5726 93.4919H80.2661V96.7984H83.5726V93.4919Z" fill="black"/>
<path d="M90.1856 93.4919H86.8792V96.7984H90.1856V93.4919Z" fill="black"/>
<path d="M93.492 93.4919H90.1855V96.7984H93.492V93.4919Z" fill="black"/>
<path d="M96.7984 93.4919H93.4919V96.7984H96.7984V93.4919Z" fill="black"/>
<path d="M113.331 93.4919H110.024V96.7984H113.331V93.4919Z" fill="black"/>
<path d="M133.169 93.4919H129.863V96.7984H133.169V93.4919Z" fill="black"/>
<path d="M14.1375 96.7983H10.8311V100.105H14.1375V96.7983Z" fill="black"/>
<path d="M20.7503 96.7983H17.4438V100.105H20.7503V96.7983Z" fill="black"/>
<path d="M33.9761 96.7983H30.6697V100.105H33.9761V96.7983Z" fill="black"/>
<path d="M43.8953 96.7983H40.5889V100.105H43.8953V96.7983Z" fill="black"/>
<path d="M47.2017 96.7983H43.8953V100.105H47.2017V96.7983Z" fill="black"/>
<path d="M50.5083 96.7983H47.2019V100.105H50.5083V96.7983Z" fill="black"/>
<path d="M53.8147 96.7983H50.5083V100.105H53.8147V96.7983Z" fill="black"/>
<path d="M57.1211 96.7983H53.8147V100.105H57.1211V96.7983Z" fill="black"/>
<path d="M76.9597 96.7983H73.6533V100.105H76.9597V96.7983Z" fill="black"/>
<path d="M86.8789 96.7983H83.5725V100.105H86.8789V96.7983Z" fill="black"/>
<path d="M90.1856 96.7983H86.8792V100.105H90.1856V96.7983Z" fill="black"/>
<path d="M93.492 96.7983H90.1855V100.105H93.492V96.7983Z" fill="black"/>
<path d="M123.25 96.7983H119.943V100.105H123.25V96.7983Z" fill="black"/>
<path d="M129.863 96.7983H126.556V100.105H129.863V96.7983Z" fill="black"/>
<path d="M133.169 96.7983H129.863V100.105H133.169V96.7983Z" fill="black"/>
<path d="M17.4439 100.105H14.1375V103.411H17.4439V100.105Z" fill="black"/>
<path d="M20.7503 100.105H17.4438V103.411H20.7503V100.105Z" fill="black"/>
<path d="M30.6697 100.105H27.3633V103.411H30.6697V100.105Z" fill="black"/>
<path d="M37.2825 100.105H33.9761V103.411H37.2825V100.105Z" fill="black"/>
<path d="M40.5889 100.105H37.2825V103.411H40.5889V100.105Z" fill="black"/>
<path d="M53.8147 100.105H50.5083V103.411H53.8147V100.105Z" fill="black"/>
<path d="M60.4275 100.105H57.1211V103.411H60.4275V100.105Z" fill="black"/>
<path d="M63.7339 100.105H60.4275V103.411H63.7339V100.105Z" fill="black"/>
<path d="M76.9597 100.105H73.6533V103.411H76.9597V100.105Z" fill="black"/>
<path d="M93.492 100.105H90.1855V103.411H93.492V100.105Z" fill="black"/>
<path d="M96.7984 100.105H93.4919V103.411H96.7984V100.105Z" fill="black"/>
<path d="M100.105 100.105H96.7983V103.411H100.105V100.105Z" fill="black"/>
<path d="M106.718 100.105H103.411V103.411H106.718V100.105Z" fill="black"/>
<path d="M110.024 100.105H106.718V103.411H110.024V100.105Z" fill="black"/>
<path d="M113.331 100.105H110.024V103.411H113.331V100.105Z" fill="black"/>
<path d="M116.637 100.105H113.331V103.411H116.637V100.105Z" fill="black"/>
<path d="M133.169 100.105H129.863V103.411H133.169V100.105Z" fill="black"/>
<path d="M14.1375 103.411H10.8311V106.718H14.1375V103.411Z" fill="black"/>
<path d="M24.0567 103.411H20.7502V106.718H24.0567V103.411Z" fill="black"/>
<path d="M27.3633 103.411H24.0569V106.718H27.3633V103.411Z" fill="black"/>
<path d="M30.6697 103.411H27.3633V106.718H30.6697V103.411Z" fill="black"/>
<path d="M33.9761 103.411H30.6697V106.718H33.9761V103.411Z" fill="black"/>
<path d="M37.2825 103.411H33.9761V106.718H37.2825V103.411Z" fill="black"/>
<path d="M43.8953 103.411H40.5889V106.718H43.8953V103.411Z" fill="black"/>
<path d="M50.5083 103.411H47.2019V106.718H50.5083V103.411Z" fill="black"/>
<path d="M53.8147 103.411H50.5083V106.718H53.8147V103.411Z" fill="black"/>
<path d="M57.1211 103.411H53.8147V106.718H57.1211V103.411Z" fill="black"/>
<path d="M76.9597 103.411H73.6533V106.718H76.9597V103.411Z" fill="black"/>
<path d="M80.2661 103.411H76.9597V106.718H80.2661V103.411Z" fill="black"/>
<path d="M90.1856 103.411H86.8792V106.718H90.1856V103.411Z" fill="black"/>
<path d="M93.492 103.411H90.1855V106.718H93.492V103.411Z" fill="black"/>
<path d="M96.7984 103.411H93.4919V106.718H96.7984V103.411Z" fill="black"/>
<path d="M106.718 103.411H103.411V106.718H106.718V103.411Z" fill="black"/>
<path d="M110.024 103.411H106.718V106.718H110.024V103.411Z" fill="black"/>
<path d="M113.331 103.411H110.024V106.718H113.331V103.411Z" fill="black"/>
<path d="M116.637 103.411H113.331V106.718H116.637V103.411Z" fill="black"/>
<path d="M119.943 103.411H116.637V106.718H119.943V103.411Z" fill="black"/>
<path d="M123.25 103.411H119.943V106.718H123.25V103.411Z" fill="black"/>
<path d="M129.863 103.411H126.556V106.718H129.863V103.411Z" fill="black"/>
<path d="M40.5889 106.718H37.2825V110.024H40.5889V106.718Z" fill="black"/>
<path d="M50.5083 106.718H47.2019V110.024H50.5083V106.718Z" fill="black"/>
<path d="M53.8147 106.718H50.5083V110.024H53.8147V106.718Z" fill="black"/>
<path d="M57.1211 106.718H53.8147V110.024H57.1211V106.718Z" fill="black"/>
<path d="M60.4275 106.718H57.1211V110.024H60.4275V106.718Z" fill="black"/>
<path d="M63.7339 106.718H60.4275V110.024H63.7339V106.718Z" fill="black"/>
<path d="M67.0403 106.718H63.7339V110.024H67.0403V106.718Z" fill="black"/>
<path d="M73.6534 106.718H70.3469V110.024H73.6534V106.718Z" fill="black"/>
<path d="M80.2661 106.718H76.9597V110.024H80.2661V106.718Z" fill="black"/>
<path d="M83.5726 106.718H80.2661V110.024H83.5726V106.718Z" fill="black"/>
<path d="M86.8789 106.718H83.5725V110.024H86.8789V106.718Z" fill="black"/>
<path d="M90.1856 106.718H86.8792V110.024H90.1856V106.718Z" fill="black"/>
<path d="M93.492 106.718H90.1855V110.024H93.492V106.718Z" fill="black"/>
<path d="M106.718 106.718H103.411V110.024H106.718V106.718Z" fill="black"/>
<path d="M119.943 106.718H116.637V110.024H119.943V106.718Z" fill="black"/>
<path d="M133.169 106.718H129.863V110.024H133.169V106.718Z" fill="black"/>
<path d="M14.1375 110.024H10.8311V113.331H14.1375V110.024Z" fill="black"/>
<path d="M17.4439 110.024H14.1375V113.331H17.4439V110.024Z" fill="black"/>
<path d="M20.7503 110.024H17.4438V113.331H20.7503V110.024Z" fill="black"/>
<path d="M24.0567 110.024H20.7502V113.331H24.0567V110.024Z" fill="black"/>
<path d="M27.3633 110.024H24.0569V113.331H27.3633V110.024Z" fill="black"/>
<path d="M30.6697 110.024H27.3633V113.331H30.6697V110.024Z" fill="black"/>
<path d="M33.9761 110.024H30.6697V113.331H33.9761V110.024Z" fill="black"/>
<path d="M57.1211 110.024H53.8147V113.331H57.1211V110.024Z" fill="black"/>
<path d="M63.7339 110.024H60.4275V113.331H63.7339V110.024Z" fill="black"/>
<path d="M70.347 110.024H67.0405V113.331H70.347V110.024Z" fill="black"/>
<path d="M73.6534 110.024H70.3469V113.331H73.6534V110.024Z" fill="black"/>
<path d="M76.9597 110.024H73.6533V113.331H76.9597V110.024Z" fill="black"/>
<path d="M93.492 110.024H90.1855V113.331H93.492V110.024Z" fill="black"/>
<path d="M106.718 110.024H103.411V113.331H106.718V110.024Z" fill="black"/>
<path d="M113.331 110.024H110.024V113.331H113.331V110.024Z" fill="black"/>
<path d="M119.943 110.024H116.637V113.331H119.943V110.024Z" fill="black"/>
<path d="M126.556 110.024H123.25V113.331H126.556V110.024Z" fill="black"/>
<path d="M129.863 110.024H126.556V113.331H129.863V110.024Z" fill="black"/>
<path d="M133.169 110.024H129.863V113.331H133.169V110.024Z" fill="black"/>
<path d="M14.1375 113.331H10.8311V116.637H14.1375V113.331Z" fill="black"/>
<path d="M33.9761 113.331H30.6697V116.637H33.9761V113.331Z" fill="black"/>
<path d="M40.5889 113.331H37.2825V116.637H40.5889V113.331Z" fill="black"/>
<path d="M47.2017 113.331H43.8953V116.637H47.2017V113.331Z" fill="black"/>
<path d="M50.5083 113.331H47.2019V116.637H50.5083V113.331Z" fill="black"/>
<path d="M53.8147 113.331H50.5083V116.637H53.8147V113.331Z" fill="black"/>
<path d="M57.1211 113.331H53.8147V116.637H57.1211V113.331Z" fill="black"/>
<path d="M63.7339 113.331H60.4275V116.637H63.7339V113.331Z" fill="black"/>
<path d="M67.0403 113.331H63.7339V116.637H67.0403V113.331Z" fill="black"/>
<path d="M76.9597 113.331H73.6533V116.637H76.9597V113.331Z" fill="black"/>
<path d="M83.5726 113.331H80.2661V116.637H83.5726V113.331Z" fill="black"/>
<path d="M90.1856 113.331H86.8792V116.637H90.1856V113.331Z" fill="black"/>
<path d="M96.7984 113.331H93.4919V116.637H96.7984V113.331Z" fill="black"/>
<path d="M100.105 113.331H96.7983V116.637H100.105V113.331Z" fill="black"/>
<path d="M106.718 113.331H103.411V116.637H106.718V113.331Z" fill="black"/>
<path d="M119.943 113.331H116.637V116.637H119.943V113.331Z" fill="black"/>
<path d="M14.1375 116.637H10.8311V119.943H14.1375V116.637Z" fill="black"/>
<path d="M20.7503 116.637H17.4438V119.943H20.7503V116.637Z" fill="black"/>
<path d="M24.0567 116.637H20.7502V119.943H24.0567V116.637Z" fill="black"/>
<path d="M27.3633 116.637H24.0569V119.943H27.3633V116.637Z" fill="black"/>
<path d="M33.9761 116.637H30.6697V119.943H33.9761V116.637Z" fill="black"/>
<path d="M40.5889 116.637H37.2825V119.943H40.5889V116.637Z" fill="black"/>
<path d="M57.1211 116.637H53.8147V119.943H57.1211V116.637Z" fill="black"/>
<path d="M60.4275 116.637H57.1211V119.943H60.4275V116.637Z" fill="black"/>
<path d="M67.0403 116.637H63.7339V119.943H67.0403V116.637Z" fill="black"/>
<path d="M73.6534 116.637H70.3469V119.943H73.6534V116.637Z" fill="black"/>
<path d="M76.9597 116.637H73.6533V119.943H76.9597V116.637Z" fill="black"/>
<path d="M80.2661 116.637H76.9597V119.943H80.2661V116.637Z" fill="black"/>
<path d="M90.1856 116.637H86.8792V119.943H90.1856V116.637Z" fill="black"/>
<path d="M93.492 116.637H90.1855V119.943H93.492V116.637Z" fill="black"/>
<path d="M96.7984 116.637H93.4919V119.943H96.7984V116.637Z" fill="black"/>
<path d="M100.105 116.637H96.7983V119.943H100.105V116.637Z" fill="black"/>
<path d="M106.718 116.637H103.411V119.943H106.718V116.637Z" fill="black"/>
<path d="M110.024 116.637H106.718V119.943H110.024V116.637Z" fill="black"/>
<path d="M113.331 116.637H110.024V119.943H113.331V116.637Z" fill="black"/>
<path d="M116.637 116.637H113.331V119.943H116.637V116.637Z" fill="black"/>
<path d="M119.943 116.637H116.637V119.943H119.943V116.637Z" fill="black"/>
<path d="M123.25 116.637H119.943V119.943H123.25V116.637Z" fill="black"/>
<path d="M14.1375 119.943H10.8311V123.25H14.1375V119.943Z" fill="black"/>
<path d="M20.7503 119.943H17.4438V123.25H20.7503V119.943Z" fill="black"/>
<path d="M24.0567 119.943H20.7502V123.25H24.0567V119.943Z" fill="black"/>
<path d="M27.3633 119.943H24.0569V123.25H27.3633V119.943Z" fill="black"/>
<path d="M33.9761 119.943H30.6697V123.25H33.9761V119.943Z" fill="black"/>
<path d="M50.5083 119.943H47.2019V123.25H50.5083V119.943Z" fill="black"/>
<path d="M53.8147 119.943H50.5083V123.25H53.8147V119.943Z" fill="black"/>
<path d="M70.347 119.943H67.0405V123.25H70.347V119.943Z" fill="black"/>
<path d="M73.6534 119.943H70.3469V123.25H73.6534V119.943Z" fill="black"/>
<path d="M76.9597 119.943H73.6533V123.25H76.9597V119.943Z" fill="black"/>
<path d="M80.2661 119.943H76.9597V123.25H80.2661V119.943Z" fill="black"/>
<path d="M90.1856 119.943H86.8792V123.25H90.1856V119.943Z" fill="black"/>
<path d="M96.7984 119.943H93.4919V123.25H96.7984V119.943Z" fill="black"/>
<path d="M110.024 119.943H106.718V123.25H110.024V119.943Z" fill="black"/>
<path d="M126.556 119.943H123.25V123.25H126.556V119.943Z" fill="black"/>
<path d="M129.863 119.943H126.556V123.25H129.863V119.943Z" fill="black"/>
<path d="M133.169 119.943H129.863V123.25H133.169V119.943Z" fill="black"/>
<path d="M14.1375 123.25H10.8311V126.556H14.1375V123.25Z" fill="black"/>
<path d="M20.7503 123.25H17.4438V126.556H20.7503V123.25Z" fill="black"/>
<path d="M24.0567 123.25H20.7502V126.556H24.0567V123.25Z" fill="black"/>
<path d="M27.3633 123.25H24.0569V126.556H27.3633V123.25Z" fill="black"/>
<path d="M33.9761 123.25H30.6697V126.556H33.9761V123.25Z" fill="black"/>
<path d="M40.5889 123.25H37.2825V126.556H40.5889V123.25Z" fill="black"/>
<path d="M50.5083 123.25H47.2019V126.556H50.5083V123.25Z" fill="black"/>
<path d="M53.8147 123.25H50.5083V126.556H53.8147V123.25Z" fill="black"/>
<path d="M57.1211 123.25H53.8147V126.556H57.1211V123.25Z" fill="black"/>
<path d="M60.4275 123.25H57.1211V126.556H60.4275V123.25Z" fill="black"/>
<path d="M80.2661 123.25H76.9597V126.556H80.2661V123.25Z" fill="black"/>
<path d="M86.8789 123.25H83.5725V126.556H86.8789V123.25Z" fill="black"/>
<path d="M93.492 123.25H90.1855V126.556H93.492V123.25Z" fill="black"/>
<path d="M106.718 123.25H103.411V126.556H106.718V123.25Z" fill="black"/>
<path d="M116.637 123.25H113.331V126.556H116.637V123.25Z" fill="black"/>
<path d="M119.943 123.25H116.637V126.556H119.943V123.25Z" fill="black"/>
<path d="M133.169 123.25H129.863V126.556H133.169V123.25Z" fill="black"/>
<path d="M14.1375 126.556H10.8311V129.863H14.1375V126.556Z" fill="black"/>
<path d="M33.9761 126.556H30.6697V129.863H33.9761V126.556Z" fill="black"/>
<path d="M43.8953 126.556H40.5889V129.863H43.8953V126.556Z" fill="black"/>
<path d="M47.2017 126.556H43.8953V129.863H47.2017V126.556Z" fill="black"/>
<path d="M67.0403 126.556H63.7339V129.863H67.0403V126.556Z" fill="black"/>
<path d="M73.6534 126.556H70.3469V129.863H73.6534V126.556Z" fill="black"/>
<path d="M76.9597 126.556H73.6533V129.863H76.9597V126.556Z" fill="black"/>
<path d="M96.7984 126.556H93.4919V129.863H96.7984V126.556Z" fill="black"/>
<path d="M100.105 126.556H96.7983V129.863H100.105V126.556Z" fill="black"/>
<path d="M103.411 126.556H100.105V129.863H103.411V126.556Z" fill="black"/>
<path d="M106.718 126.556H103.411V129.863H106.718V126.556Z" fill="black"/>
<path d="M110.024 126.556H106.718V129.863H110.024V126.556Z" fill="black"/>
<path d="M119.943 126.556H116.637V129.863H119.943V126.556Z" fill="black"/>
<path d="M123.25 126.556H119.943V129.863H123.25V126.556Z" fill="black"/>
<path d="M129.863 126.556H126.556V129.863H129.863V126.556Z" fill="black"/>
<path d="M14.1375 129.863H10.8311V133.169H14.1375V129.863Z" fill="black"/>
<path d="M17.4439 129.863H14.1375V133.169H17.4439V129.863Z" fill="black"/>
<path d="M20.7503 129.863H17.4438V133.169H20.7503V129.863Z" fill="black"/>
<path d="M24.0567 129.863H20.7502V133.169H24.0567V129.863Z" fill="black"/>
<path d="M27.3633 129.863H24.0569V133.169H27.3633V129.863Z" fill="black"/>
<path d="M30.6697 129.863H27.3633V133.169H30.6697V129.863Z" fill="black"/>
<path d="M33.9761 129.863H30.6697V133.169H33.9761V129.863Z" fill="black"/>
<path d="M43.8953 129.863H40.5889V133.169H43.8953V129.863Z" fill="black"/>
<path d="M47.2017 129.863H43.8953V133.169H47.2017V129.863Z" fill="black"/>
<path d="M50.5083 129.863H47.2019V133.169H50.5083V129.863Z" fill="black"/>
<path d="M57.1211 129.863H53.8147V133.169H57.1211V129.863Z" fill="black"/>
<path d="M63.7339 129.863H60.4275V133.169H63.7339V129.863Z" fill="black"/>
<path d="M70.347 129.863H67.0405V133.169H70.347V129.863Z" fill="black"/>
<path d="M90.1856 129.863H86.8792V133.169H90.1856V129.863Z" fill="black"/>
<path d="M93.492 129.863H90.1855V133.169H93.492V129.863Z" fill="black"/>
<path d="M96.7984 129.863H93.4919V133.169H96.7984V129.863Z" fill="black"/>
<path d="M106.718 129.863H103.411V133.169H106.718V129.863Z" fill="black"/>
<path d="M110.024 129.863H106.718V133.169H110.024V129.863Z" fill="black"/>
<path d="M113.331 129.863H110.024V133.169H113.331V129.863Z" fill="black"/>
<path d="M119.943 129.863H116.637V133.169H119.943V129.863Z" fill="black"/>
<path d="M129.863 129.863H126.556V133.169H129.863V129.863Z" fill="black"/>
<path d="M133.169 129.863H129.863V133.169H133.169V129.863Z" fill="black"/>
<g filter="url(#filter0_d_1195_1713)">
<path d="M55.4858 61.2297C55.4858 58.0573 58.0576 55.4856 61.2299 55.4856H82.7703C85.9427 55.4856 88.5144 58.0573 88.5144 61.2297V82.77C88.5144 85.9424 85.9427 88.5141 82.7703 88.5141H61.2299C58.0576 88.5141 55.4858 85.9424 55.4858 82.77V61.2297Z" fill="white"/>
<path fill-rule="evenodd" clip-rule="evenodd" d="M83.4398 57.7599H60.5604C59.0138 57.7599 57.7601 59.0136 57.7601 60.5601V83.4395C57.7601 84.9861 59.0138 86.2398 60.5604 86.2398H83.4398C84.9863 86.2398 86.24 84.9861 86.24 83.4395V60.5601C86.24 59.0136 84.9863 57.7599 83.4398 57.7599ZM60.5604 57.4009C58.8156 57.4009 57.4011 58.8153 57.4011 60.5601V83.4395C57.4011 85.1843 58.8156 86.5988 60.5604 86.5988H83.4398C85.1846 86.5988 86.599 85.1843 86.599 83.4395V60.5601C86.599 58.8153 85.1846 57.4009 83.4398 57.4009H60.5604Z" fill="#BEBEBE"/>
<g clip-path="url(#clip0_1195_1713)">
<path d="M82.2215 72.141C81.2274 71.1272 79.8419 70.4885 78.3013 70.4885C76.9699 70.4885 75.8234 70.9476 74.8228 71.7627C74.3866 72.1181 73.9286 72.5433 73.3532 73.1023C73.0671 73.3802 64.7759 81.4253 64.7759 81.4253C65.2104 81.487 65.8082 81.5055 66.3415 81.5088C66.8411 81.5121 76.3672 81.511 76.7657 81.511C77.5682 81.511 78.0906 81.5099 78.6518 81.4689C79.9385 81.375 81.1542 80.9034 82.1369 79.9382C84.3183 77.7955 84.3511 74.3175 82.2215 72.141ZM80.628 78.3966C80.2049 78.8153 79.451 79.2902 78.2123 79.3323C77.6397 79.3519 76.9709 79.3541 76.6652 79.3541C76.3311 79.3541 73.387 79.3541 70.0122 79.3541C72.4328 77.0029 74.5444 74.9524 74.784 74.7199C75.0035 74.5064 75.497 74.0348 75.9228 73.651C76.8574 72.8092 77.6986 72.64 78.2937 72.6454C79.2261 72.6541 80.0739 73.0346 80.6799 73.6493C81.9764 74.9748 81.9458 77.0924 80.628 78.3966Z" fill="#00A4FF"/>
<path d="M68.8446 71.624C67.8702 70.8947 66.7789 70.4869 65.5419 70.4885C64.0013 70.4885 62.6158 71.1272 61.6217 72.141C59.4921 74.3175 59.5248 77.7955 61.7068 79.9382C62.583 80.7986 63.6443 81.2664 64.776 81.4247L66.911 79.353C66.566 79.3514 66.0703 79.347 65.6308 79.3317C64.3927 79.2897 63.6383 78.8142 63.2157 78.396C61.8979 77.0918 61.8673 74.9743 63.1639 73.6493C63.7698 73.0347 64.6176 72.6542 65.55 72.6454C66.1342 72.6432 66.9268 72.8125 67.8227 73.5554C68.2501 73.9097 69.2 74.7444 69.6165 75.1206C69.6378 75.1397 69.6635 75.1413 69.688 75.1211L71.1582 73.687C71.1838 73.6624 71.1822 73.6291 71.1571 73.6062C70.4501 72.967 69.4478 72.0728 68.8446 71.624Z" fill="#00C9DB"/>
<path d="M78.8794 69.2438C77.8651 66.3783 75.1339 64.3257 71.9218 64.3257C68.2369 64.3257 65.1831 67.035 64.6306 70.5649C64.927 70.5147 65.2311 70.4885 65.5423 70.4885C65.9752 70.4879 66.389 70.5381 66.7875 70.6342C66.7951 70.6358 66.8033 70.6369 66.811 70.6386C67.3105 68.2557 69.4171 66.4853 71.9223 66.4853C74.0088 66.4853 75.8392 67.7436 76.6646 69.5271C76.6777 69.5549 76.6996 69.5642 76.722 69.5582C77.3427 69.3879 78.0867 69.2885 78.8057 69.3415C78.875 69.347 78.9018 69.3077 78.8794 69.2438Z" fill="#006CFF"/>
</g>
</g>
<defs>
<filter id="filter0_d_1195_1713" x="53.4858" y="53.4856" width="41.0286" height="41.0286" filterUnits="userSpaceOnUse" color-interpolation-filters="sRGB">
<feFlood flood-opacity="0" result="BackgroundImageFix"/>
<feColorMatrix in="SourceAlpha" type="matrix" values="0 0 0 0 0 0 0 0 0 0 0 0 0 0 0 0 0 0 127 0" result="hardAlpha"/>
<feOffset dx="2" dy="2"/>
<feGaussianBlur stdDeviation="2"/>
<feComposite in2="hardAlpha" operator="out"/>
<feColorMatrix type="matrix" values="0 0 0 0 0 0 0 0 0 0 0 0 0 0 0 0 0 0 0.25 0"/>
<feBlend mode="normal" in2="BackgroundImageFix" result="effect1_dropShadow_1195_1713"/>
<feBlend mode="normal" in="SourceGraphic" in2="effect1_dropShadow_1195_1713" result="shape"/>
</filter>
<clipPath id="clip0_1195_1713">
<rect width="23.7492" height="17.1852" fill="white" transform="translate(60.0474 64.3257)"/>
</clipPath>
</defs>
</svg>
