<svg width="144" height="144" viewBox="0 0 144 144" fill="none" xmlns="http://www.w3.org/2000/svg">
<rect width="144" height="144" fill="white"/>
<circle cx="29.6435" cy="29.3755" r="5.65407" stroke="#030303" stroke-width="2.01119"/>
<circle cx="29.6435" cy="29.3755" r="1.17526" fill="#030303"/>
<circle cx="29.6435" cy="114.25" r="5.65407" stroke="#030303" stroke-width="2.01119"/>
<circle cx="29.6435" cy="114.249" r="1.17526" fill="#030303"/>
<circle cx="114.516" cy="29.3755" r="5.65407" stroke="#030303" stroke-width="2.01119"/>
<circle cx="114.516" cy="29.3755" r="1.17526" fill="#030303"/>
<circle cx="115.167" cy="115.425" r="13.5751" fill="#06C161"/>
<path d="M119.053 105.942C121.76 105.942 123.955 108.222 123.955 111.033C123.955 113.845 121.76 116.124 119.053 116.124C118.451 116.124 117.964 115.618 117.964 114.993C117.964 114.368 118.451 113.861 119.053 113.861C120.557 113.861 121.776 112.595 121.776 111.033C121.776 109.471 120.557 108.205 119.053 108.205C117.609 108.205 116.427 109.372 116.335 110.847L116.329 111.033V119.518L116.299 119.519C116.028 122.064 113.95 124.043 111.427 124.043C108.72 124.043 106.525 121.764 106.525 118.952C106.525 116.141 108.72 113.861 111.427 113.861C112.029 113.861 112.517 114.368 112.517 114.993C112.517 115.618 112.029 116.124 111.427 116.124C109.923 116.124 108.704 117.39 108.704 118.952C108.704 120.514 109.923 121.78 111.427 121.78C112.871 121.78 114.053 120.614 114.145 119.138L114.151 118.952V110.468L114.181 110.468C114.451 107.922 116.529 105.942 119.053 105.942Z" fill="white"/>
<rect x="65.1992" y="7.61523" width="2.91673" height="3.21369" rx="1.45836" transform="rotate(-4.85542 65.1992 7.61523)" fill="#030303"/>
<rect x="65.9058" y="15.9355" width="2.91673" height="5.60893" rx="1.45836" transform="rotate(-4.85542 65.9058 15.9355)" fill="#030303"/>
<rect x="66.6079" y="24.1982" width="2.91673" height="2.41778" rx="1.20889" transform="rotate(-4.85542 66.6079 24.1982)" fill="#030303"/>
<rect x="67.2876" y="32.2031" width="2.91673" height="5.18933" rx="1.45836" transform="rotate(-4.85542 67.2876 32.2031)" fill="#030303"/>
<rect x="73.5923" y="106.42" width="2.91673" height="2.80986" rx="1.40493" transform="rotate(-4.85542 73.5923 106.42)" fill="#030303"/>
<rect x="74.5059" y="117.176" width="2.91673" height="8.07518" rx="1.45836" transform="rotate(-4.85542 74.5059 117.176)" fill="#030303"/>
<rect x="75.4048" y="127.758" width="2.91673" height="2.82612" rx="1.41306" transform="rotate(-4.85542 75.4048 127.758)" fill="#030303"/>
<rect x="75.8662" y="133.19" width="2.91673" height="8.20376" rx="1.45836" transform="rotate(-4.85542 75.8662 133.19)" fill="#030303"/>
<rect x="140.88" y="64.6455" width="2.91673" height="5.32218" rx="1.45836" transform="rotate(85.3169 140.88 64.6455)" fill="#030303"/>
<rect x="132.893" y="65.2998" width="2.91673" height="5.00637" rx="1.45836" transform="rotate(85.3169 132.893 65.2998)" fill="#030303"/>
<rect x="124.905" y="65.9541" width="2.91673" height="13.1347" rx="1.45836" transform="rotate(85.3169 124.905 65.9541)" fill="#030303"/>
<rect x="109.029" y="67.2544" width="2.91673" height="3.06782" rx="1.45836" transform="rotate(85.3169 109.029 67.2544)" fill="#030303"/>
<rect x="37.835" y="73.0869" width="2.91673" height="2.80986" rx="1.40493" transform="rotate(85.3169 37.835 73.0869)" fill="#030303"/>
<rect x="32.3789" y="73.5337" width="2.91673" height="8.38213" rx="1.45836" transform="rotate(85.3169 32.3789 73.5337)" fill="#030303"/>
<rect x="21.3218" y="74.4395" width="2.91673" height="5.63798" rx="1.45836" transform="rotate(85.3169 21.3218 74.4395)" fill="#030303"/>
<rect x="11.0581" y="75.2808" width="2.91673" height="8.20376" rx="1.45836" transform="rotate(85.3169 11.0581 75.2808)" fill="#030303"/>
<rect x="133.306" y="75.8447" width="2.91673" height="10.919" rx="1.45836" transform="rotate(94.8391 133.306 75.8447)" fill="#030303"/>
<rect x="111.648" y="74.0107" width="2.91673" height="5.44937" rx="1.45836" transform="rotate(94.8391 111.648 74.0107)" fill="#030303"/>
<rect x="38.0962" y="67.7842" width="2.91673" height="5.66206" rx="1.45836" transform="rotate(94.8391 38.0962 67.7842)" fill="#030303"/>
<rect x="22.3667" y="66.4526" width="2.91673" height="5.55536" rx="1.45836" transform="rotate(94.8391 22.3667 66.4526)" fill="#030303"/>
<rect x="14.1064" y="65.7534" width="2.91673" height="2.71698" rx="1.35849" transform="rotate(94.8391 14.1064 65.7534)" fill="#030303"/>
<rect x="8.40771" y="65.271" width="2.91673" height="5.27526" rx="1.45836" transform="rotate(94.8391 8.40771 65.271)" fill="#030303"/>
<rect x="138.492" y="52.4185" width="2.91673" height="5.32218" rx="1.45836" transform="rotate(74.9946 138.492 52.4185)" fill="#030303"/>
<rect x="125.883" y="55.7983" width="2.91673" height="3.17102" rx="1.45836" transform="rotate(74.9946 125.883 55.7983)" fill="#030303"/>
<rect x="120.343" y="57.2832" width="2.91673" height="3.18205" rx="1.45836" transform="rotate(74.9946 120.343 57.2832)" fill="#030303"/>
<rect x="112.609" y="59.3564" width="2.91673" height="8.22847" rx="1.45836" transform="rotate(74.9946 112.609 59.3564)" fill="#030303"/>
<rect x="38.6274" y="79.187" width="2.91673" height="2.80986" rx="1.40493" transform="rotate(74.9946 38.6274 79.187)" fill="#030303"/>
<rect x="33.3394" y="80.6045" width="2.91673" height="3.3187" rx="1.45836" transform="rotate(74.9946 33.3394 80.6045)" fill="#030303"/>
<rect x="27.1318" y="82.2686" width="2.91673" height="12.4754" rx="1.45836" transform="rotate(74.9946 27.1318 82.2686)" fill="#030303"/>
<rect x="89.0796" y="131.185" width="2.91673" height="3.30055" rx="1.45836" transform="rotate(164.988 89.0796 131.185)" fill="#030303"/>
<rect x="86.9336" y="123.183" width="2.91673" height="5.67742" rx="1.45836" transform="rotate(164.988 86.9336 123.183)" fill="#030303"/>
<rect x="84.2109" y="113.028" width="2.91673" height="2.98299" rx="1.45836" transform="rotate(164.988 84.2109 113.028)" fill="#030303"/>
<rect x="82.9072" y="108.167" width="2.91673" height="3.06046" rx="1.45836" transform="rotate(164.988 82.9072 108.167)" fill="#030303"/>
<rect x="64.1411" y="38.187" width="2.91673" height="8.1523" rx="1.45836" transform="rotate(164.988 64.1411 38.187)" fill="#030303"/>
<rect x="61.3086" y="27.6265" width="2.91673" height="2.91504" rx="1.45752" transform="rotate(164.988 61.3086 27.6265)" fill="#030303"/>
<rect x="59.8945" y="22.3521" width="2.91673" height="5.30474" rx="1.45836" transform="rotate(164.988 59.8945 22.3521)" fill="#030303"/>
<rect x="57.293" y="12.6519" width="2.91673" height="8.24549" rx="1.45836" transform="rotate(164.988 57.293 12.6519)" fill="#030303"/>
<rect x="135.541" y="99.981" width="2.91673" height="5.12961" rx="1.45836" transform="rotate(115.134 135.541 99.981)" fill="#030303"/>
<rect x="124.166" y="94.644" width="2.91673" height="6.02243" rx="1.45836" transform="rotate(115.134 124.166 94.644)" fill="#030303"/>
<rect x="116.138" y="90.8774" width="2.91673" height="5.31282" rx="1.45836" transform="rotate(115.134 116.138 90.8774)" fill="#030303"/>
<rect x="108.747" y="87.4102" width="2.91673" height="4.91502" rx="1.45836" transform="rotate(115.134 108.747 87.4102)" fill="#030303"/>
<rect x="40.7773" y="55.521" width="2.91673" height="20.587" rx="1.45836" transform="rotate(115.134 40.7773 55.521)" fill="#030303"/>
<rect x="20.1528" y="45.8447" width="2.91673" height="3.22244" rx="1.45836" transform="rotate(115.134 20.1528 45.8447)" fill="#030303"/>
<rect x="14.7544" y="43.312" width="2.91673" height="5.16646" rx="1.45836" transform="rotate(115.134 14.7544 43.312)" fill="#030303"/>
<rect x="128.953" y="85.8608" width="2.91673" height="2.86423" rx="1.43212" transform="rotate(105.276 128.953 85.8608)" fill="#030303"/>
<rect x="124.265" y="84.5811" width="2.91673" height="3.13243" rx="1.45836" transform="rotate(105.276 124.265 84.5811)" fill="#030303"/>
<rect x="115.964" y="82.314" width="2.91673" height="10.1984" rx="1.45836" transform="rotate(105.276 115.964 82.314)" fill="#030303"/>
<rect x="38.4419" y="61.1401" width="2.91673" height="15.4535" rx="1.45836" transform="rotate(105.276 38.4419 61.1401)" fill="#030303"/>
<rect x="18.4116" y="55.6694" width="2.91673" height="5.23966" rx="1.45836" transform="rotate(105.276 18.4116 55.6694)" fill="#030303"/>
<rect x="10.7129" y="53.5669" width="2.91673" height="5.16646" rx="1.45836" transform="rotate(105.276 10.7129 53.5669)" fill="#030303"/>
<rect x="100.524" y="109.926" width="2.91673" height="12.8873" rx="1.45836" transform="rotate(145.108 100.524 109.926)" fill="#030303"/>
<rect x="53.4668" y="42.4507" width="2.91673" height="13.8639" rx="1.45836" transform="rotate(145.108 53.4668 42.4507)" fill="#030303"/>
<rect x="44.0801" y="28.9917" width="2.91673" height="5.30474" rx="1.45836" transform="rotate(145.108 44.0801 28.9917)" fill="#030303"/>
<rect x="38.335" y="20.7539" width="2.91673" height="8.24549" rx="1.45836" transform="rotate(145.108 38.335 20.7539)" fill="#030303"/>
<rect x="46.25" y="19.1865" width="2.91673" height="5.43223" rx="1.45836" transform="rotate(-24.9453 46.25 19.1865)" fill="#030303"/>
<rect x="54.0205" y="35.8916" width="2.91673" height="5.47614" rx="1.45836" transform="rotate(-24.9453 54.0205 35.8916)" fill="#030303"/>
<rect x="85.6216" y="103.83" width="2.91673" height="5.81985" rx="1.45836" transform="rotate(-24.9453 85.6216 103.83)" fill="#030303"/>
<rect x="90.1455" y="113.556" width="2.91673" height="10.5971" rx="1.45836" transform="rotate(-24.9453 90.1455 113.556)" fill="#030303"/>
<rect x="95.5493" y="125.173" width="2.91673" height="3.26123" rx="1.45836" transform="rotate(-24.9453 95.5493 125.173)" fill="#030303"/>
<rect x="97.958" y="130.352" width="2.91673" height="5.50861" rx="1.45836" transform="rotate(-24.9453 97.958 130.352)" fill="#030303"/>
<rect x="76.4917" y="2.56787" width="2.91673" height="5.4049" rx="1.45836" transform="rotate(4.94263 76.4917 2.56787)" fill="#030303"/>
<rect x="75.7939" y="10.6357" width="2.91673" height="5.37523" rx="1.45836" transform="rotate(4.94263 75.7939 10.6357)" fill="#030303"/>
<rect x="75.1191" y="18.4419" width="2.91673" height="3.48656" rx="1.45836" transform="rotate(4.94263 75.1191 18.4419)" fill="#030303"/>
<rect x="74.4014" y="26.7368" width="2.91673" height="10.5063" rx="1.45836" transform="rotate(4.94263 74.4014 26.7368)" fill="#030303"/>
<rect x="67.5264" y="106.241" width="2.91673" height="5.57448" rx="1.45836" transform="rotate(4.94263 67.5264 106.241)" fill="#030303"/>
<rect x="66.832" y="114.268" width="2.91673" height="3.11736" rx="1.45836" transform="rotate(4.94263 66.832 114.268)" fill="#030303"/>
<rect x="66.1353" y="122.326" width="2.91673" height="8.09696" rx="1.45836" transform="rotate(4.94263 66.1353 122.326)" fill="#030303"/>
<rect x="65.2114" y="133.007" width="2.91673" height="8.20376" rx="1.45836" transform="rotate(4.94263 65.2114 133.007)" fill="#030303"/>
<rect x="126.684" y="44.8242" width="2.91673" height="12.8079" rx="1.45836" transform="rotate(64.9624 126.684 44.8242)" fill="#030303"/>
<rect x="112.768" y="51.3247" width="2.91673" height="2.89679" rx="1.4484" transform="rotate(64.9624 112.768 51.3247)" fill="#030303"/>
<rect x="107.885" y="53.605" width="2.91673" height="5.54312" rx="1.45836" transform="rotate(64.9624 107.885 53.605)" fill="#030303"/>
<rect x="40.0806" y="85.2773" width="2.91673" height="5.34702" rx="1.45836" transform="rotate(64.9624 40.0806 85.2773)" fill="#030303"/>
<rect x="32.7808" y="88.687" width="2.91673" height="13.0061" rx="1.45836" transform="rotate(64.9624 32.7808 88.687)" fill="#030303"/>
<rect x="110.562" y="13.9907" width="2.91673" height="8.00154" rx="1.45836" transform="rotate(34.8438 110.562 13.9907)" fill="#030303"/>
<rect x="104.22" y="23.1016" width="2.91673" height="5.11015" rx="1.45836" transform="rotate(34.8438 104.22 23.1016)" fill="#030303"/>
<rect x="99.6724" y="29.6338" width="2.91673" height="5.06524" rx="1.45836" transform="rotate(34.8438 99.6724 29.6338)" fill="#030303"/>
<rect x="95.1533" y="36.1255" width="2.91673" height="2.97772" rx="1.45836" transform="rotate(34.8438 95.1533 36.1255)" fill="#030303"/>
<rect x="92.3154" y="40.2021" width="2.91673" height="3.06319" rx="1.45836" transform="rotate(34.8438 92.3154 40.2021)" fill="#030303"/>
<rect x="45.2061" y="107.873" width="2.91673" height="3.0392" rx="1.45836" transform="rotate(34.8438 45.2061 107.873)" fill="#030303"/>
<rect x="50.9062" y="99.3843" width="2.91673" height="5.78758" rx="1.45836" transform="rotate(34.8438 50.9062 99.3843)" fill="#030303"/>
<rect x="42.252" y="112.116" width="2.91673" height="3.36408" rx="1.45836" transform="rotate(34.8438 42.252 112.116)" fill="#030303"/>
<rect x="38.9932" y="116.797" width="2.91673" height="3.2066" rx="1.45836" transform="rotate(34.8438 38.9932 116.797)" fill="#030303"/>
<rect x="34.1577" y="123.744" width="2.91673" height="4.97994" rx="1.45836" transform="rotate(34.8438 34.1577 123.744)" fill="#030303"/>
<rect x="96.6992" y="15.1821" width="2.91673" height="3.03736" rx="1.45836" transform="rotate(24.8849 96.6992 15.1821)" fill="#030303"/>
<rect x="94.2339" y="20.4976" width="2.91673" height="5.48895" rx="1.45836" transform="rotate(24.8849 94.2339 20.4976)" fill="#030303"/>
<rect x="91.103" y="27.2466" width="2.91673" height="2.88774" rx="1.44387" transform="rotate(24.8849 91.103 27.2466)" fill="#030303"/>
<rect x="87.6143" y="34.7676" width="2.91673" height="5.56685" rx="1.45836" transform="rotate(24.8849 87.6143 34.7676)" fill="#030303"/>
<rect x="56.1123" y="102.679" width="2.91673" height="3.07987" rx="1.45836" transform="rotate(24.8849 56.1123 102.679)" fill="#030303"/>
<rect x="53.813" y="107.636" width="2.91673" height="3.07455" rx="1.45836" transform="rotate(24.8849 53.813 107.636)" fill="#030303"/>
<rect x="51.5361" y="112.544" width="2.91673" height="5.38464" rx="1.45836" transform="rotate(24.8849 51.5361 112.544)" fill="#030303"/>
<rect x="46.1699" y="124.114" width="2.91673" height="5.72716" rx="1.45836" transform="rotate(24.8849 46.1699 124.114)" fill="#030303"/>
<rect x="112.147" y="98.5513" width="2.91673" height="5.42664" rx="1.45836" transform="rotate(125.207 112.147 98.5513)" fill="#030303"/>
<rect x="105.472" y="93.8413" width="2.91673" height="5.6749" rx="1.45836" transform="rotate(125.207 105.472 93.8413)" fill="#030303"/>
<rect x="44.3149" y="50.6875" width="2.91673" height="15.6049" rx="1.45836" transform="rotate(125.207 44.3149 50.6875)" fill="#030303"/>
<rect x="29.7051" y="40.3784" width="2.91673" height="5.79358" rx="1.45836" transform="rotate(125.207 29.7051 40.3784)" fill="#030303"/>
<rect x="22.812" y="35.5146" width="2.91673" height="8.34744" rx="1.45836" transform="rotate(125.207 22.812 35.5146)" fill="#030303"/>
<rect x="103.299" y="100.805" width="2.91673" height="7.81982" rx="1.45836" transform="rotate(134.954 103.299 100.805)" fill="#030303"/>
<rect x="49.8267" y="47.4189" width="2.91673" height="9.38908" rx="1.45836" transform="rotate(134.954 49.8267 47.4189)" fill="#030303"/>
<rect x="39.3213" y="36.9297" width="2.91673" height="3.09532" rx="1.45836" transform="rotate(134.954 39.3213 36.9297)" fill="#030303"/>
<rect x="123.337" y="33.311" width="2.91673" height="5.9211" rx="1.45836" transform="rotate(54.5452 123.337 33.311)" fill="#030303"/>
<rect x="111.928" y="41.4355" width="2.91673" height="15.6933" rx="1.45836" transform="rotate(54.5452 111.928 41.4355)" fill="#030303"/>
<rect x="42.6987" y="90.7334" width="2.91673" height="12.766" rx="1.45836" transform="rotate(54.5452 42.6987 90.7334)" fill="#030303"/>
<rect x="25.4585" y="103.01" width="2.91673" height="5.27343" rx="1.45836" transform="rotate(54.5452 25.4585 103.01)" fill="#030303"/>
<rect x="18.6958" y="107.826" width="2.91673" height="4.77972" rx="1.45836" transform="rotate(54.5452 18.6958 107.826)" fill="#030303"/>
<rect x="106.463" y="35.5342" width="2.91673" height="15.3393" rx="1.45836" transform="rotate(44.7232 106.463 35.5342)" fill="#030303"/>
<rect x="46.668" y="95.9106" width="2.91673" height="15.919" rx="1.45836" transform="rotate(44.7232 46.668 95.9106)" fill="#030303"/>
<rect x="88.479" y="4.68311" width="2.91673" height="7.58931" rx="1.45836" transform="rotate(15 88.479 4.68311)" fill="#030303"/>
<rect x="85.7715" y="14.7871" width="2.91673" height="5.25786" rx="1.45836" transform="rotate(15 85.7715 14.7871)" fill="#030303"/>
<rect x="82.9727" y="25.2319" width="2.91673" height="13.2274" rx="1.45836" transform="rotate(15 82.9727 25.2319)" fill="#030303"/>
<rect x="61.626" y="104.899" width="2.91673" height="2.98484" rx="1.45836" transform="rotate(15 61.626 104.899)" fill="#030303"/>
<rect x="59.5244" y="112.742" width="2.91673" height="7.98837" rx="1.45836" transform="rotate(15 59.5244 112.742)" fill="#030303"/>
<rect x="56.7329" y="123.162" width="2.91673" height="7.64925" rx="1.45836" transform="rotate(15 56.7329 123.162)" fill="#030303"/>
<g clip-path="url(#clip0_1220_1945)">
<path d="M96.6989 67.7831C94.3364 65.3739 91.0437 63.856 87.3825 63.856C84.2182 63.856 81.4937 64.947 79.1156 66.884C78.079 67.7286 76.9905 68.7393 75.6231 70.0678C74.9433 70.7281 55.2388 89.8475 55.2388 89.8475C56.2715 89.9941 57.6921 90.0382 58.9596 90.046C60.1467 90.0538 82.7859 90.0512 83.733 90.0512C85.6401 90.0512 86.8817 90.0486 88.2154 89.9513C91.2733 89.7282 94.1626 88.6072 96.4978 86.3135C101.682 81.2213 101.76 72.9557 96.6989 67.7831ZM92.9119 82.6497C91.9064 83.6448 90.1148 84.7735 87.171 84.8734C85.8101 84.9201 84.2208 84.9253 83.4943 84.9253C82.7003 84.9253 75.7035 84.9253 67.6832 84.9253C73.4357 79.3375 78.454 74.4646 79.0235 73.9119C79.5451 73.4046 80.7179 72.2837 81.7298 71.3716C83.9509 69.3711 85.9502 68.9689 87.3643 68.9819C89.5802 69.0026 91.5951 69.9069 93.0351 71.3677C96.1164 74.5178 96.0437 79.5503 92.9119 82.6497Z" fill="#00A4FF"/>
<path d="M64.908 66.5545C62.5922 64.8212 59.9988 63.8521 57.0589 63.856C53.3978 63.856 50.105 65.3739 47.7425 67.7831C42.6815 72.9557 42.7593 81.2213 47.9449 86.3135C50.0272 88.3582 52.5493 89.47 55.2387 89.8462L60.3128 84.9227C59.4928 84.9188 58.3148 84.9084 57.2704 84.8721C54.328 84.7722 52.535 83.6422 51.5308 82.6484C48.399 79.549 48.3263 74.5165 51.4076 71.3678C52.8477 69.9069 54.8625 69.0026 57.0784 68.9819C58.4666 68.9767 60.3504 69.3789 62.4794 71.1446C63.4952 71.9866 65.7526 73.9703 66.7425 74.8642C66.7931 74.9096 66.8541 74.9135 66.9125 74.8655L70.4063 71.4573C70.4673 71.3989 70.4634 71.3198 70.4037 71.2653C68.7236 69.746 66.3416 67.6209 64.908 66.5545Z" fill="#00C9DB"/>
<path d="M88.7568 60.8975C86.3463 54.0876 79.8555 49.2095 72.2218 49.2095C63.4645 49.2095 56.207 55.6483 54.894 64.0371C55.5985 63.9178 56.3212 63.8555 57.0607 63.8555C58.0895 63.8542 59.0729 63.9736 60.02 64.2019C60.0381 64.2058 60.0576 64.2084 60.0758 64.2123C61.2628 58.5493 66.2694 54.3419 72.2231 54.3419C77.1816 54.3419 81.5317 57.3323 83.4933 61.5708C83.5245 61.637 83.5764 61.6591 83.6296 61.6448C85.1047 61.24 86.873 61.0039 88.5816 61.1297C88.7464 61.1427 88.81 61.0493 88.7568 60.8975Z" fill="#006CFF"/>
</g>
<defs>
<clipPath id="clip0_1220_1945">
<rect width="56.4409" height="40.8413" fill="white" transform="translate(44.001 49.2095)"/>
</clipPath>
</defs>
</svg>
