<?xml version="1.0" standalone="no"?><!DOCTYPE svg PUBLIC "-//W3C//DTD SVG 1.1//EN" "http://www.w3.org/Graphics/SVG/1.1/DTD/svg11.dtd"><svg t="1652098540376" class="icon" viewBox="0 0 1024 1024" version="1.1" xmlns="http://www.w3.org/2000/svg" p-id="2861" xmlns:xlink="http://www.w3.org/1999/xlink" width="200" height="200"><defs><style type="text/css">@font-face { font-family: feedback-iconfont; src: url("//at.alicdn.com/t/font_1031158_u69w8yhxdu.woff2?t=1630033759944") format("woff2"), url("//at.alicdn.com/t/font_1031158_u69w8yhxdu.woff?t=1630033759944") format("woff"), url("//at.alicdn.com/t/font_1031158_u69w8yhxdu.ttf?t=1630033759944") format("truetype"); }
</style></defs><path d="M926.90944 897.13664l-156.7744-169.1904c66.71872-71.48544 107.60192-167.3728 107.60192-272.64 0-220.50816-179.4048-399.90272-399.90272-399.90272-220.50816 0-399.90272 179.39456-399.90272 399.90272s179.39456 399.90272 399.90272 399.90272c87.9616 0 169.3696-28.544 235.4688-76.86144l157.90592 170.41408a37.84192 37.84192 0 0 0 27.86304 12.16 37.97504 37.97504 0 0 0 27.83744-63.78496zM153.8816 455.30624c0-178.62656 145.32608-323.95264 323.95264-323.95264 178.6368 0 323.95264 145.32608 323.95264 323.95264s-145.32096 323.95264-323.95264 323.95264c-178.62656 0-323.95264-145.32608-323.95264-323.95264z" p-id="2862" fill="#1296db"></path></svg>