<?xml version="1.0" encoding="UTF-8"?>
<svg width="16px" height="16px" viewBox="0 0 16 16" version="1.1" xmlns="http://www.w3.org/2000/svg" xmlns:xlink="http://www.w3.org/1999/xlink">
    <title>形状结合</title>
    <g id="页面-1" stroke="none" stroke-width="1" fill="none" fill-rule="evenodd">
        <g id="导航-登陆" transform="translate(-1590.000000, -24.000000)" fill="#98A3B7" fill-rule="nonzero">
            <g id="Group-30" transform="translate(1590.000000, 20.000000)">
                <g id="编组" transform="translate(0.000000, 4.000000)">
                    <path d="M8,0 C12.418278,0 16,3.581722 16,8 C16,12.418278 12.418278,16 8,16 C3.581722,16 0,12.418278 0,8 C0,3.581722 3.581722,0 8,0 Z M5.21022626,5.13326239 C4.71311884,4.98581651 3.90461417,4.93446117 2.80825879,4.99410884 C2.29350323,5.87789541 2,6.90467203 2,8 C2,11.3137085 4.6862915,14 8,14 C11.3137085,14 14,11.3137085 14,8 C14,7.68515585 13.9757498,7.37597565 13.9290153,7.07422532 C12.5162814,6.91336959 11.0876975,7.27497807 10.5303875,7.84382635 C10.0037035,8.38141449 9.98507806,8.48656454 10.1711238,10.1682248 C10.3141257,11.4608135 9.56428513,12.5808907 8.44525499,13.0473925 C7.23667406,13.5512262 5.90076815,13.1329209 5.52792814,11.8141818 C5.44887144,11.5345574 5.37961417,11.4561142 5.04845875,11.2374582 C4.68324975,10.9963171 4.69791204,11.0062361 4.55181076,10.8927116 C4.0014816,10.4650917 3.59849461,9.92019191 3.29988947,9.11211739 C2.78613023,7.72180059 3.30401018,6.91131389 4.56219297,6.1046379 L4.56219297,6.1046379 L4.77501455,5.96882596 C5.31171771,5.62456356 5.4689949,5.45585777 5.49842396,5.22769097 C5.50072458,5.20985406 5.51134261,5.2178796 5.37109637,5.17936321 Z M8,2 C6.76558299,2 5.61823255,2.37277633 4.66438081,3.01189689 C6.64974994,3.19045294 7.68109523,3.93986892 7.48199273,5.48353264 C7.35433231,6.47329797 6.85079852,7.01342121 5.85484009,7.65226791 L5.85484009,7.65226791 L5.6416661,7.78830585 C5.08007708,8.14836512 5.07745538,8.1524681 5.17590193,8.41888062 C5.34398691,8.87374616 5.5208292,9.11286388 5.77895185,9.31343182 C5.86416417,9.37964399 5.84988232,9.36998237 6.15047135,9.56845599 C6.84520474,10.0271762 7.22163673,10.4535358 7.45248855,11.2700611 C7.45653149,11.2843611 7.46801054,11.2879554 7.67568799,11.2013788 C8.0142272,11.0602484 8.2230917,10.7482563 8.18325206,10.3881474 C7.9376094,8.16779289 8.05336899,7.51427145 9.10175932,6.44417581 C9.96273778,5.56537212 11.5492335,5.04251644 13.2163574,5.03487131 C12.1851853,3.22240233 10.2353463,2 8,2 Z" id="形状结合"></path>
                </g>
            </g>
        </g>
    </g>
</svg>