<?xml version="1.0" standalone="no"?><!DOCTYPE svg PUBLIC "-//W3C//DTD SVG 1.1//EN" "http://www.w3.org/Graphics/SVG/1.1/DTD/svg11.dtd"><svg t="1650701842704" class="icon" viewBox="0 0 1024 1024" version="1.1" xmlns="http://www.w3.org/2000/svg" p-id="7867" xmlns:xlink="http://www.w3.org/1999/xlink" width="200" height="200"><defs><style type="text/css">@font-face { font-family: feedback-iconfont; src: url("//at.alicdn.com/t/font_1031158_u69w8yhxdu.woff2?t=1630033759944") format("woff2"), url("//at.alicdn.com/t/font_1031158_u69w8yhxdu.woff?t=1630033759944") format("woff"), url("//at.alicdn.com/t/font_1031158_u69w8yhxdu.ttf?t=1630033759944") format("truetype"); }
</style></defs><path d="M1003.008 215.552l-204.8-153.6A51.2 51.2 0 0 0 768 51.2H256a51.2 51.2 0 0 0-30.72 10.24l-204.8 153.6A51.2 51.2 0 0 0 0 256v665.6a51.2 51.2 0 0 0 51.2 51.2h921.6a51.2 51.2 0 0 0 51.2-51.2V256a51.2 51.2 0 0 0-20.992-40.448zM272.896 153.6h477.696L819.2 204.8H204.8zM921.6 870.4H102.4V307.2h819.2z" fill="#ffffff" p-id="7868" data-spm-anchor-id="a313x.7781069.0.i2" class="selected"></path><path d="M435.2 640h358.4v-102.4h-358.4v-51.2l-204.8 102.4 204.8 102.4v-51.2z" fill="#3E4055" p-id="7869"></path></svg>