<?xml version="1.0" standalone="no"?><!DOCTYPE svg PUBLIC "-//W3C//DTD SVG 1.1//EN" "http://www.w3.org/Graphics/SVG/1.1/DTD/svg11.dtd"><svg t="1650701821339" class="icon" viewBox="0 0 1024 1024" version="1.1" xmlns="http://www.w3.org/2000/svg" p-id="7657" xmlns:xlink="http://www.w3.org/1999/xlink" width="200" height="200"><defs><style type="text/css">@font-face { font-family: feedback-iconfont; src: url("//at.alicdn.com/t/font_1031158_u69w8yhxdu.woff2?t=1630033759944") format("woff2"), url("//at.alicdn.com/t/font_1031158_u69w8yhxdu.woff?t=1630033759944") format("woff"), url("//at.alicdn.com/t/font_1031158_u69w8yhxdu.ttf?t=1630033759944") format("truetype"); }
</style></defs><path d="M819.2 153.6H153.6a51.2 51.2 0 0 1 51.2-51.2h716.8a51.2 51.2 0 0 0 0-102.4H204.8a153.6 153.6 0 0 0-153.6 153.6v716.8a153.6 153.6 0 0 0 153.6 153.6h614.4a153.6 153.6 0 0 0 153.6-153.6V307.2a153.6 153.6 0 0 0-153.6-153.6z m51.2 716.8a51.2 51.2 0 0 1-51.2 51.2H204.8a51.2 51.2 0 0 1-51.2-51.2V256h460.8v204.8l76.8-51.2L768 460.8V256h51.2a51.2 51.2 0 0 1 51.2 51.2z" fill="#ffffff" p-id="7658" data-spm-anchor-id="a313x.7781069.0.i0" class="selected"></path></svg>