<?xml version="1.0" standalone="no"?><!DOCTYPE svg PUBLIC "-//W3C//DTD SVG 1.1//EN" "http://www.w3.org/Graphics/SVG/1.1/DTD/svg11.dtd"><svg t="1650701867082" class="icon" viewBox="0 0 1024 1024" version="1.1" xmlns="http://www.w3.org/2000/svg" p-id="8487" xmlns:xlink="http://www.w3.org/1999/xlink" width="200" height="200"><defs><style type="text/css">@font-face { font-family: feedback-iconfont; src: url("//at.alicdn.com/t/font_1031158_u69w8yhxdu.woff2?t=1630033759944") format("woff2"), url("//at.alicdn.com/t/font_1031158_u69w8yhxdu.woff?t=1630033759944") format("woff"), url("//at.alicdn.com/t/font_1031158_u69w8yhxdu.ttf?t=1630033759944") format("truetype"); }
</style></defs><path d="M537.599462 204.800819h-307.199692a51.199949 51.199949 0 0 0 0 102.399898h307.199692a51.199949 51.199949 0 0 0 0-102.399898zM537.599462 409.600614h-307.199692a51.199949 51.199949 0 0 0 0 102.399898h307.199692a51.199949 51.199949 0 0 0 0-102.399898zM1009.150991 420.864603a51.199949 51.199949 0 0 0-72.191928 0l-361.983638 361.983638a51.199949 51.199949 0 1 0 72.191928 72.191928l361.983638-361.983638a51.199949 51.199949 0 0 0 0-72.191928z" fill="#3E4055" p-id="8488"></path><path d="M767.999232 921.600102H102.399898V102.400922h491.007509L767.999232 276.992747v193.535806l102.399898-102.399897V256.000768a51.199949 51.199949 0 0 0-14.847986-36.351964l-204.799795-204.799795A51.199949 51.199949 0 0 0 614.399386 0.001024H51.199949a51.199949 51.199949 0 0 0-51.199949 51.199949v921.599078a51.199949 51.199949 0 0 0 51.199949 51.199949h767.999232a51.199949 51.199949 0 0 0 51.199949-51.199949v-221.695778l-102.399898 102.399897z" fill="#ffffff" p-id="8489" data-spm-anchor-id="a313x.7781069.0.i8" class="selected"></path></svg>