<?xml version="1.0" standalone="no"?><!DOCTYPE svg PUBLIC "-//W3C//DTD SVG 1.1//EN" "http://www.w3.org/Graphics/SVG/1.1/DTD/svg11.dtd"><svg t="1650701850986" class="icon" viewBox="0 0 1024 1024" version="1.1" xmlns="http://www.w3.org/2000/svg" p-id="8074" xmlns:xlink="http://www.w3.org/1999/xlink" width="200" height="200"><defs><style type="text/css">@font-face { font-family: feedback-iconfont; src: url("//at.alicdn.com/t/font_1031158_u69w8yhxdu.woff2?t=1630033759944") format("woff2"), url("//at.alicdn.com/t/font_1031158_u69w8yhxdu.woff?t=1630033759944") format("woff"), url("//at.alicdn.com/t/font_1031158_u69w8yhxdu.ttf?t=1630033759944") format("truetype"); }
</style></defs><path d="M870.4 0H204.8a102.4 102.4 0 0 0-102.4 102.4v153.6H51.2a51.2 51.2 0 0 0 0 102.4h51.2v102.4H51.2a51.2 51.2 0 0 0 0 102.4h51.2v102.4H51.2a51.2 51.2 0 0 0 0 102.4h51.2v153.6a102.4 102.4 0 0 0 102.4 102.4h665.6a102.4 102.4 0 0 0 102.4-102.4V102.4a102.4 102.4 0 0 0-102.4-102.4zM204.8 768h51.2a51.2 51.2 0 0 0 0-102.4H204.8v-102.4h51.2a51.2 51.2 0 0 0 0-102.4H204.8V358.4h51.2a51.2 51.2 0 0 0 0-102.4H204.8V102.4h460.8v819.2H204.8z m665.6 153.6h-102.4V102.4h102.4z" fill="#ffffff" p-id="8075" data-spm-anchor-id="a313x.7781069.0.i4" class="selected"></path></svg>