<?xml version="1.0" standalone="no"?><!DOCTYPE svg PUBLIC "-//W3C//DTD SVG 1.1//EN" "http://www.w3.org/Graphics/SVG/1.1/DTD/svg11.dtd"><svg t="1650701858137" class="icon" viewBox="0 0 1024 1024" version="1.1" xmlns="http://www.w3.org/2000/svg" p-id="8280" xmlns:xlink="http://www.w3.org/1999/xlink" width="200" height="200"><defs><style type="text/css">@font-face { font-family: feedback-iconfont; src: url("//at.alicdn.com/t/font_1031158_u69w8yhxdu.woff2?t=1630033759944") format("woff2"), url("//at.alicdn.com/t/font_1031158_u69w8yhxdu.woff?t=1630033759944") format("woff"), url("//at.alicdn.com/t/font_1031158_u69w8yhxdu.ttf?t=1630033759944") format("truetype"); }
</style></defs><path d="M921.6 102.4h-153.6V51.2a51.2 51.2 0 0 0-102.4 0v51.2H358.4V51.2a51.2 51.2 0 0 0-102.4 0v51.2H102.4a102.4 102.4 0 0 0-102.4 102.4v512a102.4 102.4 0 0 0 102.4 102.4h183.296l-74.24 128a51.2 51.2 0 0 0 88.576 51.2l102.4-177.152h217.088l102.4 177.152a51.2 51.2 0 0 0 88.576-51.2L738.304 819.2H921.6a102.4 102.4 0 0 0 102.4-102.4V204.8a102.4 102.4 0 0 0-102.4-102.4z m0 614.4H102.4V204.8h153.6v51.2a51.2 51.2 0 0 0 102.4 0V204.8h307.2v51.2a51.2 51.2 0 0 0 102.4 0V204.8h153.6z" fill="#ffffff" p-id="8281" data-spm-anchor-id="a313x.7781069.0.i6" class="selected"></path><path d="M768 460.8H256a51.2 51.2 0 0 0 0 102.4h512a51.2 51.2 0 0 0 0-102.4z" fill="#3E4055" p-id="8282"></path></svg>