<?xml version="1.0" standalone="no"?><!DOCTYPE svg PUBLIC "-//W3C//DTD SVG 1.1//EN" "http://www.w3.org/Graphics/SVG/1.1/DTD/svg11.dtd"><svg t="1648267021351" class="icon" viewBox="0 0 1024 1024" version="1.1" xmlns="http://www.w3.org/2000/svg" p-id="11757" xmlns:xlink="http://www.w3.org/1999/xlink" width="200" height="200"><defs><style type="text/css">@font-face { font-family: feedback-iconfont; src: url("//at.alicdn.com/t/font_1031158_u69w8yhxdu.woff2?t=1630033759944") format("woff2"), url("//at.alicdn.com/t/font_1031158_u69w8yhxdu.woff?t=1630033759944") format("woff"), url("//at.alicdn.com/t/font_1031158_u69w8yhxdu.ttf?t=1630033759944") format("truetype"); }
</style></defs><path d="M375.466667 64c4.693333 0 8.533333 3.84 8.533333 8.533333V128h256V72.533333c0-4.693333 3.84-8.533333 8.533333-8.533333h46.933334c4.693333 0 8.533333 3.84 8.533333 8.533333V128h106.666667a128 128 0 0 1 128 128v554.666667a128 128 0 0 1-128 128H213.333333a128 128 0 0 1-128-128V256a128 128 0 0 1 128-128h106.666667V72.533333c0-4.693333 3.84-8.533333 8.533333-8.533333h46.933334zM874.666667 405.333333H149.333333v405.333334a64 64 0 0 0 60.245334 63.893333L213.333333 874.666667h597.333334a64 64 0 0 0 63.893333-60.245334L874.666667 810.666667V405.333333zM810.666667 192H213.333333a64 64 0 0 0-63.893333 60.245333L149.333333 256v85.333333h725.333334v-85.333333a64 64 0 0 0-60.245334-63.893333L810.666667 192z" fill="#333333" p-id="11758"></path></svg>