<?xml version="1.0" standalone="no"?><!DOCTYPE svg PUBLIC "-//W3C//DTD SVG 1.1//EN" "http://www.w3.org/Graphics/SVG/1.1/DTD/svg11.dtd"><svg t="1648269419408" class="icon" viewBox="0 0 1024 1024" version="1.1" xmlns="http://www.w3.org/2000/svg" p-id="12897" xmlns:xlink="http://www.w3.org/1999/xlink" width="200" height="200"><defs><style type="text/css">@font-face { font-family: feedback-iconfont; src: url("//at.alicdn.com/t/font_1031158_u69w8yhxdu.woff2?t=1630033759944") format("woff2"), url("//at.alicdn.com/t/font_1031158_u69w8yhxdu.woff?t=1630033759944") format("woff"), url("//at.alicdn.com/t/font_1031158_u69w8yhxdu.ttf?t=1630033759944") format("truetype"); }
</style></defs><path d="M832 64a128 128 0 0 1 128 128v640a128 128 0 0 1-128 128H192a128 128 0 0 1-128-128V192a128 128 0 0 1 128-128h640zM501.333333 704a160.064 160.064 0 0 1-150.890666-106.666667H128v234.666667a64 64 0 0 0 60.245333 63.893333L192 896h640a64 64 0 0 0 63.893333-60.245333L896 832V597.333333H652.224a160.064 160.064 0 0 1-150.890667 106.666667z m-95.424-170.666667a96 96 0 1 0 190.826667 0H896v-170.666666H128v170.666666h277.909333zM832 128H192a64 64 0 0 0-63.893333 60.245333L128 192v106.666667h768V192a64 64 0 0 0-60.245333-63.893333L832 128z" fill="#333333" p-id="12898"></path></svg>